<svg width="237" height="56" viewBox="0 0 237 56" fill="none" xmlns="http://www.w3.org/2000/svg">
<rect width="237" height="56" rx="8" fill="#8A1A50"/>
<g clip-path="url(#clip0_86_26578)">
<path d="M16.5076 28.1331L16.4531 28.1071C16.3327 28.0391 16.2357 27.9365 16.1746 27.8126C16.087 27.6604 16.0403 27.4881 16.0391 27.3126L16.0521 27.2266C16.0521 27.0936 16.0861 26.9741 16.1461 26.8596L16.2006 26.7606C16.2266 26.7061 16.2656 26.6591 16.2996 26.6146C16.318 26.5925 16.3308 26.5662 16.3367 26.5381C16.3427 26.5099 16.3416 26.4807 16.3336 26.4531L16.2996 26.3461C16.259 26.217 16.2371 26.0828 16.2346 25.9476L16.2136 25.8671C16.2136 25.7186 16.2526 25.5726 16.3466 25.4661L16.4141 25.3801C16.4611 25.3126 16.5341 25.2731 16.6146 25.2471C16.6796 25.2261 16.7266 25.1586 16.7346 25.0806L16.7476 24.8541C16.7476 24.6746 16.8336 24.5076 16.9666 24.3851L17.1281 24.2651C17.1596 24.2336 17.1931 24.2001 17.2191 24.1451C17.2531 24.1061 17.2606 24.0511 17.2531 24.0121C17.2401 23.9471 17.2531 23.9261 17.2871 23.9181C17.3941 23.9596 17.4616 23.9466 17.5086 23.8921L17.5946 23.7801L17.8341 23.5121C17.8688 23.4757 17.8923 23.43 17.9015 23.3805C17.9108 23.3311 17.9054 23.28 17.8861 23.2336L17.8081 23.0591C17.7951 23.0201 17.8081 22.9731 17.8421 22.9601C17.9281 22.9601 17.9881 22.9916 18.0141 23.0461L18.0401 23.0931C18.0816 23.1736 18.1756 23.2131 18.2406 23.1791C18.3624 23.135 18.491 23.113 18.6206 23.1141H18.8341C18.9801 23.1141 19.0996 23.0126 19.1286 22.8591C19.1546 22.6741 19.2196 22.5256 19.3136 22.4266C19.4151 22.3121 19.5271 22.2261 19.6601 22.1586C19.8346 22.0676 19.9416 21.9321 19.9751 21.7601C20.0221 21.5466 20.1341 21.3931 20.2876 21.2941L20.7956 21.0076L20.9416 20.9191C21.0276 20.8671 21.1081 20.7991 21.1761 20.7186L21.3091 20.5596C21.3662 20.4959 21.4402 20.4497 21.5226 20.4266C21.5876 20.4056 21.6816 20.3926 21.7621 20.4006L22.0276 20.4186C22.1606 20.4186 22.2671 20.4526 22.3741 20.4991L22.4416 20.5331C22.5091 20.5591 22.5746 20.5461 22.6081 20.4991L22.6681 20.4651L22.9546 20.1656C22.9839 20.1337 23.0207 20.1097 23.0616 20.0957C23.1026 20.0816 23.1464 20.078 23.1891 20.0851C23.2751 20.0981 23.3611 20.1321 23.4416 20.1736C23.5616 20.2386 23.6606 20.2646 23.7751 20.2646H23.8426C23.9886 20.2646 24.1341 20.2856 24.2826 20.3191L24.3816 20.3451C24.4302 20.357 24.4812 20.3545 24.5284 20.3378C24.5755 20.3211 24.6168 20.2909 24.6471 20.2511C24.6518 20.2433 24.6581 20.2366 24.6657 20.2316C24.6733 20.2266 24.6819 20.2234 24.691 20.2221C24.7 20.2209 24.7091 20.2216 24.7178 20.2244C24.7265 20.2272 24.7344 20.2318 24.7411 20.2381C24.7621 20.2511 24.7671 20.2641 24.7751 20.2851C24.7881 20.4181 24.8691 20.5196 24.9756 20.5506L25.0826 20.5846C25.1946 20.6186 25.2961 20.6916 25.3611 20.7851C25.4286 20.8841 25.5096 20.9856 25.6006 21.0506L25.6681 21.1181C25.7012 21.1502 25.741 21.1745 25.7847 21.1894C25.8283 21.2043 25.8747 21.2093 25.9206 21.2041H26.3136C26.4751 21.2041 26.6286 21.2326 26.7826 21.2981C26.9286 21.3656 27.0821 21.3786 27.2201 21.3241C27.3686 21.2796 27.5221 21.2591 27.6756 21.2796L27.9621 21.3241C28.0951 21.3396 28.2276 21.4046 28.3086 21.5066L28.3426 21.5381C28.4076 21.6056 28.4756 21.6916 28.5406 21.7856C28.5623 21.8266 28.5949 21.8607 28.6349 21.8842C28.6749 21.9077 28.7207 21.9196 28.7671 21.9186H29.1811C29.2826 21.9186 29.3816 21.9396 29.4626 21.9861C29.5486 22.0511 29.6216 22.1191 29.6891 22.1866L29.7541 22.2726C29.8346 22.3666 29.8741 22.4916 29.8686 22.6266C29.8686 22.7336 29.9491 22.8246 30.0536 22.8246L30.1891 22.8401C30.2831 22.8401 30.3611 22.9051 30.4081 22.9911L30.4756 23.1266L30.6476 23.5121C30.6726 23.5712 30.6824 23.6357 30.6761 23.6996C30.6761 23.7646 30.6941 23.8196 30.7411 23.8456L30.8086 23.8926C30.8516 23.9247 30.8853 23.9677 30.9064 24.0172C30.9275 24.0666 30.9351 24.1207 30.9286 24.1741L30.8816 24.4866L30.8686 24.6196C30.8631 24.6571 30.8677 24.6954 30.8818 24.7307C30.8959 24.7659 30.9191 24.7967 30.9491 24.8201C31.0481 24.8851 31.0951 24.9736 31.1001 25.0726V25.2056C31.1001 25.2731 31.0871 25.3541 31.0351 25.4061C30.9906 25.4634 30.9668 25.534 30.9676 25.6066L30.9886 25.7601C30.9886 25.8671 31.0536 25.9606 31.1216 26.0256C31.1659 26.0593 31.2031 26.1016 31.2309 26.1499C31.2586 26.1983 31.2764 26.2517 31.2831 26.3071C31.3091 26.4736 31.3146 26.6066 31.3146 26.7396V26.8931C31.3146 26.9476 31.3146 27.0001 31.3356 27.0521C31.3504 27.101 31.3806 27.1439 31.4216 27.1746L31.5546 27.2736C31.6901 27.3596 31.7836 27.4741 31.8361 27.6276C31.9036 27.7736 31.9221 27.9271 31.9221 28.0806V28.1326C31.9221 28.2526 31.9091 28.3801 31.8701 28.4921C31.8363 28.6018 31.8427 28.72 31.8881 28.8256C31.9426 28.9196 31.9766 29.0261 31.9896 29.1406C32.0156 29.2736 32.0026 29.4061 31.9556 29.5131L31.9426 29.5601C31.9079 29.6418 31.8555 29.7147 31.7891 29.7736C31.7216 29.8411 31.6561 29.8806 31.6171 29.9271C31.5756 29.9661 31.5496 30.0341 31.5701 30.0936L31.5881 30.1876C31.6221 30.3206 31.6221 30.4531 31.5881 30.5731V30.6276C31.5621 30.7266 31.5231 30.8126 31.4811 30.8931C31.4361 30.9778 31.3673 31.0476 31.2831 31.0936L31.1816 31.1586C31.157 31.1748 31.1368 31.1968 31.1228 31.2227C31.1087 31.2486 31.1013 31.2776 31.1011 31.3071C31.1015 31.3705 31.0784 31.4318 31.0361 31.4791L30.9346 31.6146C30.8696 31.7006 30.7836 31.7736 30.6896 31.8126C30.605 31.8715 30.5264 31.9387 30.4551 32.0131C30.3882 32.0912 30.3384 32.1825 30.3091 32.2811C30.3 32.3331 30.2727 32.3802 30.2322 32.4141C30.1916 32.448 30.1404 32.4664 30.0876 32.4661H29.7281C29.6341 32.4661 29.5486 32.5336 29.5091 32.6146C29.4714 32.704 29.4196 32.7867 29.3556 32.8596C29.2913 32.927 29.2447 33.0092 29.2201 33.0991C29.2071 33.1796 29.1421 33.2346 29.0741 33.2061C29.0364 33.1889 28.9938 33.1863 28.9543 33.1987C28.9149 33.2112 28.8815 33.2379 28.8606 33.2736C28.7932 33.3906 28.7108 33.4983 28.6156 33.5941L28.5686 33.6331C28.4801 33.7006 28.3681 33.7531 28.2666 33.7531C28.1466 33.7531 28.0871 33.8076 28.0686 33.8861C28.0475 33.9609 28.0336 34.0376 28.0271 34.1151C28.0128 34.19 27.991 34.2634 27.9621 34.3341L27.9281 34.3731C27.8606 34.4746 27.8081 34.5736 27.7406 34.6596L27.7146 34.7011C27.6286 34.8131 27.5141 34.9016 27.3811 34.9331C27.2393 34.9805 27.0905 35.0033 26.9411 35.0006H26.8471C26.8107 35.0027 26.7755 35.0135 26.7442 35.0321C26.713 35.0507 26.6867 35.0766 26.6676 35.1076L26.6286 35.1751L26.5871 35.2531L26.5011 35.4016C26.4694 35.4593 26.4267 35.5102 26.3753 35.5513C26.3239 35.5924 26.2648 35.6229 26.2016 35.6411C26.0619 35.6751 25.918 35.6883 25.7746 35.6801L25.6676 35.6671C25.5736 35.6671 25.4881 35.6411 25.4021 35.5996C25.3346 35.5736 25.2406 35.5996 25.2016 35.6671C25.1446 35.7493 25.0622 35.8106 24.9671 35.8416L24.7666 35.9066C24.6288 35.9406 24.4848 35.9406 24.3471 35.9066L24.2401 35.8726C24.1729 35.8679 24.1082 35.8454 24.0526 35.8076C23.9919 35.7751 23.9232 35.7607 23.8546 35.7661L23.7661 35.7816C23.6331 35.7946 23.5136 35.7816 23.3936 35.7476L23.2141 35.7061C23.1312 35.6802 23.0602 35.6258 23.0136 35.5526C22.9929 35.5162 22.964 35.4852 22.9292 35.4621C22.8943 35.439 22.8546 35.4244 22.8131 35.4196H22.5996C22.4666 35.4016 22.3471 35.3546 22.2661 35.2531L22.0006 35.0006L21.9066 34.9201L21.7606 34.8131L21.6746 34.7481C21.5706 34.6763 21.4509 34.6306 21.3256 34.6151L20.9271 34.5476C20.8856 34.5476 20.8596 34.5346 20.8201 34.5266L20.6666 34.4926C20.5991 34.4796 20.5336 34.4276 20.4871 34.3596C20.4481 34.2946 20.3726 34.2656 20.3076 34.2946C20.1746 34.3466 20.0681 34.3596 19.9611 34.3806H19.8671C19.6974 34.3952 19.5268 34.3656 19.3721 34.2946C19.2131 34.2271 19.1066 34.1281 19.0076 34.0001C18.9673 33.9411 18.9157 33.8907 18.8558 33.8518C18.7959 33.8129 18.7288 33.7863 18.6586 33.7736L18.4736 33.7346C18.3351 33.7059 18.2034 33.6511 18.0856 33.5731C17.9526 33.4791 17.8851 33.3936 17.8331 33.2866C17.7789 33.1831 17.7469 33.0695 17.7391 32.9531V32.9011C17.7261 32.7656 17.6321 32.6461 17.5071 32.6146C17.3717 32.5751 17.2465 32.5066 17.1401 32.4141C17.093 32.3695 17.0555 32.3158 17.03 32.2562C17.0044 32.1966 16.9914 32.1324 16.9916 32.0676L17.0071 31.7731C17.0071 31.6586 16.9731 31.5596 16.8926 31.4866C16.8121 31.4061 16.7596 31.3071 16.7596 31.2001L16.7386 30.9606C16.7226 30.785 16.6938 30.6109 16.6526 30.4396C16.6136 30.2861 16.6736 30.1321 16.7986 30.0596L16.8456 30.0256C16.8793 30.0029 16.9035 29.9686 16.9135 29.9292C16.9236 29.8898 16.9188 29.8481 16.9001 29.8121L16.8456 29.7471C16.7916 29.6858 16.7225 29.6399 16.6451 29.6141C16.5931 29.5986 16.5801 29.5466 16.5801 29.5126L16.6451 29.4321C16.6634 29.4096 16.6735 29.3815 16.6735 29.3526C16.6735 29.3236 16.6634 29.2955 16.6451 29.2731C16.5965 29.2217 16.5663 29.1558 16.5591 29.0856L16.5461 28.6196C16.5461 28.5256 16.5591 28.4321 16.5851 28.3411C16.6136 28.2606 16.5851 28.1666 16.5071 28.1276L16.5076 28.1331ZM23.1066 27.2526C23.1536 27.2056 23.1456 27.1196 23.1066 27.0861C23.0438 27.0371 22.9916 26.9761 22.9531 26.9066L22.8856 26.7996C22.8405 26.7155 22.7824 26.639 22.7136 26.5731L22.7006 26.5601C22.6343 26.5063 22.5816 26.4376 22.5471 26.3596C22.5303 26.3288 22.5216 26.2943 22.5216 26.2593C22.5216 26.2243 22.5303 26.1898 22.5471 26.1591L22.5861 26.0941C22.6288 26.0214 22.652 25.9389 22.6536 25.8546V25.8261C22.6501 25.755 22.6267 25.6864 22.5861 25.6281C22.5567 25.5685 22.5348 25.5055 22.5211 25.4406V25.4016C22.5114 25.3611 22.511 25.3189 22.52 25.2783C22.529 25.2377 22.5472 25.1996 22.5731 25.1671C22.6276 25.0811 22.6671 25.0006 22.6876 24.9016V24.8861C22.6994 24.8497 22.703 24.8112 22.6981 24.7733C22.6932 24.7354 22.6798 24.6991 22.6591 24.6671C22.6388 24.6358 22.6259 24.6003 22.6214 24.5633C22.6169 24.5263 22.6209 24.4888 22.6331 24.4536L22.6801 24.3206C22.7191 24.2006 22.7816 24.0941 22.8596 24.0001L22.9536 23.9011L23.0211 23.8206L23.0601 23.7816C23.0798 23.7599 23.0918 23.7322 23.0941 23.703C23.0965 23.6738 23.0891 23.6446 23.0731 23.6201C23.0378 23.5595 23.024 23.4889 23.0341 23.4196L23.0471 23.3256C23.0681 23.1926 23.1146 23.0601 23.2006 22.9531L23.2266 22.9271C23.3256 22.7941 23.4531 22.7056 23.5991 22.6591L23.7816 22.5941C23.8596 22.5681 23.9146 22.4796 23.9146 22.3936C23.9146 22.2866 23.9486 22.1931 24.0081 22.1071L24.0396 22.0731C24.1071 21.9611 24.1881 21.8466 24.2401 21.7266L24.2871 21.6406C24.2998 21.6203 24.307 21.597 24.3081 21.5731C24.3081 21.4611 24.2406 21.3596 24.1336 21.3541L23.8421 21.3331C23.6756 21.3201 23.5086 21.3331 23.3471 21.3331L22.7821 21.4006C22.6936 21.4006 22.6286 21.4656 22.6206 21.5596C22.6196 21.6039 22.605 21.6468 22.5789 21.6827C22.5528 21.7185 22.5164 21.7455 22.4746 21.7601L22.2351 21.8251L22.1676 21.8461L21.9671 21.9136C21.8937 21.9376 21.8262 21.9766 21.7688 22.0282C21.7114 22.0798 21.6653 22.1427 21.6336 22.2131L21.5816 22.2991C21.5129 22.4467 21.4012 22.5701 21.2611 22.6531C21.1281 22.7391 21.0606 22.8796 21.0476 23.0386V23.1061C21.0346 23.2391 20.9931 23.3716 20.9146 23.4656L20.8806 23.5201C20.8541 23.5508 20.8369 23.5883 20.8309 23.6284C20.8249 23.6685 20.8303 23.7094 20.8466 23.7466C20.8806 23.8246 20.9011 23.9131 20.8936 23.9991V24.3531C20.8925 24.3953 20.8795 24.4364 20.8559 24.4714C20.8324 24.5065 20.7993 24.5341 20.7606 24.5511C20.7164 24.567 20.6769 24.5937 20.6456 24.6287C20.6142 24.6637 20.5921 24.7059 20.5811 24.7516L20.5471 24.8846C20.5329 24.9494 20.5379 25.0169 20.5615 25.0789C20.5852 25.1409 20.6263 25.1946 20.6801 25.2336C20.7871 25.3116 20.8546 25.4316 20.8806 25.5801V25.7001C20.9016 25.8331 20.9746 25.9656 21.0941 26.0336C21.2141 26.1141 21.3076 26.2341 21.3596 26.3671L21.3936 26.4741C21.4161 26.54 21.457 26.5981 21.5115 26.6415C21.566 26.6849 21.6318 26.7118 21.7011 26.7191H21.7401C21.8601 26.7191 21.9666 26.7866 22.0346 26.8936C22.0996 27.0006 22.2066 27.0731 22.3261 27.0941L22.5136 27.1461C22.6281 27.1801 22.7351 27.2401 22.8211 27.3256L22.8341 27.3411C22.8694 27.3671 22.9134 27.3787 22.957 27.3734C23.0006 27.3681 23.0405 27.3464 23.0686 27.3126L23.1156 27.2606L23.1066 27.2526ZM23.8666 26.6406C23.9316 26.6796 23.9996 26.6586 24.0256 26.5991L24.0466 26.5676C24.0936 26.4736 24.1536 26.3801 24.2186 26.2996L24.3541 26.0991C24.3721 26.0991 24.3801 26.0861 24.3856 26.0731L24.5471 25.8596C24.6146 25.7946 24.6931 25.7476 24.7866 25.7476C24.8294 25.7478 24.8713 25.7352 24.907 25.7116C24.9427 25.6879 24.9706 25.6541 24.9871 25.6146C25.0131 25.5206 25.0521 25.4321 25.1331 25.3596L25.1671 25.3206C25.2346 25.2531 25.3001 25.2191 25.3676 25.1876C25.4536 25.1746 25.5341 25.1591 25.6151 25.1591H25.8131C25.8936 25.1591 25.9616 25.1276 26.0006 25.0601C26.0396 24.9926 26.0996 24.9481 26.1671 24.9141L26.2346 24.8856C26.3416 24.8411 26.4611 24.8076 26.5811 24.7946L26.7141 24.7816C26.7946 24.7816 26.8806 24.7816 26.9616 24.8261C27.0266 24.8731 27.1151 24.8676 27.1806 24.8131L27.2276 24.7871C27.3266 24.7196 27.4411 24.6671 27.5611 24.6541H27.5741C27.7021 24.6316 27.8324 24.6245 27.9621 24.6331H28.0271C28.1601 24.6541 28.2746 24.7006 28.3606 24.7996L28.3816 24.8256C28.4491 24.8931 28.5536 24.9481 28.6471 24.9481H28.7616C28.7956 24.9481 28.8266 24.9326 28.8476 24.9011C28.8702 24.8771 28.9008 24.8624 28.9336 24.8596H29.0011C29.0951 24.8596 29.1806 24.8856 29.2666 24.9141L29.3811 24.9611C29.4881 24.9926 29.6001 25.0261 29.7146 25.0391H29.7951C29.8471 25.0391 29.8811 25.0076 29.8811 24.9611C29.8836 24.8954 29.8673 24.8303 29.8341 24.7736L29.7871 24.6666C29.7351 24.5806 29.6931 24.4871 29.6541 24.4011L29.6411 24.3671C29.6243 24.3363 29.6156 24.3018 29.6156 24.2668C29.6156 24.2318 29.6243 24.1973 29.6411 24.1666V24.1326C29.6477 24.106 29.6445 24.0779 29.6321 24.0535C29.6197 24.0291 29.5989 24.0099 29.5736 23.9996H29.5216C29.4162 23.968 29.3228 23.9054 29.2536 23.8201L29.1886 23.7526C29.1211 23.6876 29.0816 23.5861 29.0531 23.4871C29.0216 23.4011 28.9491 23.3336 28.8551 23.3336H28.5736C28.5247 23.3267 28.4777 23.3103 28.4353 23.2852C28.3928 23.2602 28.3557 23.227 28.3261 23.1876L28.3001 23.1536C28.2519 23.0839 28.2142 23.0076 28.1881 22.9271C28.1541 22.8596 28.0811 22.8201 28.0136 22.8411L27.9331 22.8671C27.8001 22.9141 27.6676 22.9321 27.5346 22.9191L27.4276 22.9061C27.3131 22.9061 27.2061 22.8591 27.1201 22.7941L27.0526 22.7471C27.0018 22.7079 26.9458 22.6763 26.8861 22.6531C26.8211 22.6271 26.7661 22.6401 26.7271 22.6871L26.6931 22.7261C26.6254 22.7964 26.5369 22.8431 26.4406 22.8591L26.0811 22.8801C26.0131 22.8826 25.9487 22.9115 25.9016 22.9606C25.85 23.0067 25.7869 23.0381 25.7191 23.0516H25.7061C25.6411 23.0516 25.5731 23.0986 25.5081 23.1456V23.1586C25.4765 23.1907 25.4388 23.2162 25.3973 23.2336C25.3557 23.2511 25.3111 23.26 25.2661 23.2601L25.2401 23.2731C25.1596 23.2731 25.0811 23.2731 25.0006 23.2941H24.9201C24.8081 23.3121 24.7196 23.4061 24.6936 23.5261L24.6676 23.6796C24.6462 23.7841 24.6006 23.8822 24.5346 23.9661C24.4671 24.0466 24.3861 24.0991 24.2871 24.0991H24.1751C24.1076 24.1146 24.0396 24.1876 24.0526 24.2656C24.0681 24.3801 24.0526 24.4791 24.0346 24.5806L24.0086 24.6926C23.9971 24.74 23.9746 24.7841 23.9429 24.8212C23.9112 24.8583 23.8711 24.8873 23.8261 24.9061L23.7871 24.9271H23.7741C23.7351 24.9531 23.7066 25.0131 23.7401 25.0601C23.7785 25.1194 23.7951 25.1903 23.7871 25.2606L23.7661 25.4741C23.7618 25.5511 23.7395 25.6261 23.7011 25.6931C23.6819 25.7226 23.6707 25.7565 23.6684 25.7916C23.6661 25.8267 23.6729 25.8618 23.6881 25.8936L23.7531 26.0396C23.7873 26.1054 23.7948 26.1818 23.7741 26.2531C23.7512 26.3173 23.7424 26.3856 23.7481 26.4536C23.7481 26.5211 23.7871 26.5866 23.8421 26.6151L23.8666 26.6406ZM29.1326 31.4611C29.2001 31.5261 29.2991 31.5521 29.3801 31.5001L29.5131 31.4141C29.5831 31.3658 29.6347 31.2951 29.6591 31.2136V31.2006L29.7266 31.0001L29.7656 30.9326L29.7941 30.8676L29.8201 30.8206C29.8323 30.7927 29.8505 30.768 29.8735 30.7482C29.8966 30.7284 29.9237 30.714 29.9531 30.7061L29.9791 30.6931C30.0336 30.6801 30.0676 30.6281 30.0676 30.5731C30.0676 30.5081 30.0991 30.4531 30.1326 30.4066L30.1871 30.3596L30.3201 30.1876V30.1746C30.359 30.1198 30.3863 30.0577 30.4006 29.9921C30.4116 29.9247 30.4017 29.8556 30.3721 29.7941L30.3591 29.7656C30.3357 29.7106 30.3199 29.6527 30.3121 29.5936L30.2941 29.4061L30.2731 29.2056C30.2731 29.1406 30.2991 29.0726 30.3406 29.0076C30.3851 28.9531 30.4186 28.8851 30.4476 28.8201V28.7941L30.4606 28.7811C30.4736 28.7136 30.4396 28.6456 30.3801 28.6456C30.3126 28.6141 30.2471 28.5596 30.2266 28.4791L30.2056 28.4401C30.1729 28.3229 30.1554 28.2021 30.1536 28.0806L30.1666 27.7471V27.7261C30.166 27.673 30.1447 27.6223 30.1073 27.5849C30.0698 27.5474 30.0191 27.5261 29.9661 27.5256H29.9531C29.8913 27.528 29.8296 27.5174 29.7722 27.4945C29.7147 27.4716 29.6627 27.4368 29.6196 27.3926L29.5676 27.3251L29.4321 27.1741L29.2601 26.9736C29.1958 26.8807 29.1215 26.7952 29.0386 26.7186C28.9736 26.6536 28.8721 26.5856 28.7731 26.5726L28.6401 26.5516C28.5597 26.535 28.483 26.5042 28.4136 26.4606C28.3591 26.4191 28.2806 26.4321 28.2261 26.4866L28.1401 26.5806L28.0986 26.6066C28.0516 26.6196 28.0076 26.5936 27.9866 26.5391C27.9584 26.4563 27.963 26.3659 27.9996 26.2866V26.2476C27.9996 26.2006 27.9606 26.1671 27.9191 26.1801H27.8121C27.6915 26.1845 27.5715 26.1623 27.4606 26.1151L27.3931 26.0866C27.325 26.0527 27.2501 26.0349 27.1741 26.0346C27.1037 26.033 27.0343 26.051 26.9736 26.0866L26.9476 26.1076C26.8671 26.1587 26.7748 26.1883 26.6796 26.1936H26.4606C26.3639 26.1926 26.2696 26.2237 26.1926 26.2821C26.1069 26.3335 26.0125 26.3687 25.9141 26.3861L25.7346 26.4146C25.6465 26.4331 25.5637 26.4714 25.4926 26.5266C25.4276 26.5941 25.3336 26.6336 25.2476 26.6596L25.2136 26.6751C25.1042 26.7072 25.01 26.7774 24.9481 26.8731L24.8676 26.9536C24.8447 26.9845 24.8324 27.0219 24.8324 27.0603C24.8324 27.0987 24.8447 27.1362 24.8676 27.1671C24.9066 27.2346 24.9876 27.2531 25.0681 27.2346L25.1671 27.1931C25.2191 27.1751 25.2816 27.1931 25.3261 27.2191C25.3485 27.2372 25.3744 27.2507 25.4021 27.2588C25.4298 27.2668 25.4589 27.2693 25.4876 27.2661L25.6541 27.2481C25.7481 27.2481 25.8416 27.2481 25.9326 27.2741C26.0341 27.3081 26.1201 27.3416 26.2006 27.4071C26.2763 27.4686 26.3688 27.5059 26.4661 27.5141C26.5676 27.5271 26.6666 27.5481 26.7606 27.5816L26.8256 27.5946C26.8931 27.6156 26.9481 27.6596 26.9871 27.7276C27.0211 27.7821 27.0521 27.8606 27.0521 27.9281V27.9491C27.0521 28.0271 27.1196 28.0821 27.1876 28.0821H27.2266C27.3336 28.0821 27.4481 28.0951 27.5601 28.1291L27.6071 28.1471C27.6789 28.1736 27.7413 28.2207 27.7866 28.2826C27.8411 28.3476 27.8726 28.4156 27.8936 28.4806L27.9146 28.5746C27.9326 28.6761 27.9406 28.7751 27.9406 28.8821V28.9161C27.9406 28.9811 27.9876 29.0491 28.0606 29.0751C28.1281 29.0881 28.2066 29.1166 28.2821 29.1556L28.3136 29.1686C28.4021 29.2206 28.4881 29.2886 28.5531 29.3691L28.5871 29.4161C28.6756 29.5151 28.7201 29.6426 28.7201 29.7676V29.8146C28.7201 29.9161 28.7021 30.0151 28.6681 30.1091C28.6421 30.1896 28.6681 30.2836 28.7541 30.3096L28.8011 30.3436C28.9026 30.3826 28.9886 30.4556 29.0536 30.5416C29.1211 30.6431 29.1476 30.7551 29.1476 30.8751V31.0756C29.1346 31.1431 29.1161 31.1956 29.0826 31.2421C29.0491 31.2886 29.0486 31.3566 29.0826 31.4036L29.1216 31.4686L29.1326 31.4611ZM24.8666 28.0471H24.8536C24.8251 28.0471 24.8121 28.0811 24.8196 28.1146L24.8456 28.2476C24.8716 28.3546 24.8846 28.4611 24.9001 28.5681C24.9131 28.6751 24.9651 28.7661 25.0461 28.8336H25.0721C25.121 28.8721 25.1612 28.9206 25.1899 28.9758C25.2186 29.0311 25.2352 29.0919 25.2386 29.1541V29.4876C25.2256 29.5526 25.2386 29.6206 25.2801 29.6751L25.3116 29.7066C25.3729 29.7829 25.4085 29.8767 25.4131 29.9746L25.4311 30.3416C25.4311 30.4276 25.3791 30.5006 25.2981 30.5136L25.2331 30.5266C25.1861 30.5266 25.1656 30.5811 25.1656 30.6281C25.1656 30.6801 25.1866 30.7401 25.2046 30.7946V30.8076C25.2256 30.8726 25.2331 30.9406 25.2256 31.0081L25.1996 31.1876C25.1751 31.3179 25.1302 31.4437 25.0666 31.5601L25.0196 31.6406C24.9906 31.6988 24.9429 31.7457 24.8841 31.7736C24.8525 31.7865 24.8242 31.8064 24.8012 31.8316C24.7782 31.8569 24.7611 31.8869 24.7511 31.9196L24.6991 32.1591C24.6612 32.3007 24.6024 32.4359 24.5246 32.5601H24.5116C24.432 32.6691 24.3298 32.7596 24.2121 32.8256L24.1316 32.8801L23.9311 32.9791C23.8991 32.9938 23.8714 33.0163 23.8505 33.0445C23.8295 33.0727 23.8159 33.1057 23.8111 33.1406L23.7796 33.3596C23.7586 33.4926 23.7121 33.6071 23.6181 33.6931L23.5321 33.7946L23.4306 33.8936L23.3316 34.0006C23.2511 34.0946 23.1311 34.1336 22.9981 34.1151L22.7586 34.0681L22.5371 34.0396H22.4771C22.4511 34.0681 22.4456 34.1071 22.4641 34.1466C22.5111 34.2271 22.5841 34.2821 22.6646 34.2821L22.8106 34.3081C22.8781 34.3081 22.9591 34.3421 23.0241 34.3731C23.0916 34.4201 23.1571 34.4536 23.2376 34.4746H23.2506C23.3391 34.5086 23.4301 34.5136 23.5186 34.5086L23.6176 34.4931C23.7321 34.4801 23.8391 34.4931 23.9301 34.5346L24.0106 34.5606C24.0446 34.5736 24.0966 34.5606 24.1306 34.5266C24.1687 34.4893 24.2139 34.4601 24.2636 34.4406L24.3181 34.4276C24.4041 34.4016 24.4901 34.3861 24.5836 34.3861H24.6381C24.7161 34.3861 24.7916 34.4016 24.8571 34.4406L24.8831 34.4536C24.9301 34.4746 24.9846 34.4536 25.0186 34.4146C25.0366 34.3676 25.0836 34.3206 25.1306 34.2816L25.2971 34.1671L25.4041 34.0996L25.4586 34.0681C25.5299 34.0222 25.6133 33.9987 25.6981 34.0006L25.9376 33.9796C25.9841 33.9736 26.028 33.9542 26.0636 33.9236C26.0992 33.8931 26.1251 33.8527 26.1381 33.8076C26.1641 33.7061 26.2031 33.6071 26.2711 33.5211C26.3386 33.4326 26.4041 33.3596 26.4716 33.2946C26.5466 33.2318 26.6395 33.1943 26.7371 33.1876H26.7916C26.8435 33.1772 26.89 33.1487 26.9228 33.1072C26.9557 33.0657 26.9728 33.0139 26.9711 32.9611V32.5131C26.9841 32.4481 27.0101 32.3596 27.0491 32.2941L27.1846 32.0936L27.2366 32.0261C27.2781 31.9921 27.3041 31.9481 27.3511 31.8931L27.4161 31.8071C27.4576 31.7396 27.4576 31.6536 27.4031 31.5936C27.3405 31.523 27.3014 31.4348 27.2911 31.3411V31.3126C27.2753 31.2013 27.2814 31.088 27.3091 30.9791V30.9476C27.3431 30.8591 27.3896 30.7731 27.4446 30.6926C27.47 30.6614 27.4821 30.6215 27.4782 30.5815C27.4742 30.5415 27.4546 30.5046 27.4236 30.4791L27.3091 30.3801C27.2176 30.2971 27.1608 30.1826 27.1501 30.0596L27.1371 29.9266C27.1371 29.8851 27.1371 29.8406 27.1241 29.7936L27.1111 29.6921C27.1025 29.6379 27.0826 29.5863 27.0525 29.5405C27.0224 29.4947 26.9829 29.4558 26.9366 29.4266L26.8896 29.4136C26.8155 29.3671 26.7517 29.3061 26.7021 29.2341C26.6501 29.1666 26.6241 29.0726 26.6031 28.9791L26.5821 28.8671C26.5821 28.8256 26.5561 28.7996 26.5171 28.7811L26.1966 28.6796C26.1291 28.6666 26.0636 28.6146 26.0171 28.5676H26.0041C25.9626 28.5131 25.8971 28.5131 25.8556 28.5521L25.7906 28.6196C25.7776 28.6406 25.7621 28.6456 25.7436 28.6406C25.7021 28.6406 25.6761 28.6066 25.6891 28.5731C25.6965 28.5209 25.6901 28.4677 25.6705 28.4188C25.6508 28.3699 25.6186 28.327 25.5771 28.2946L25.4886 28.2271L25.2906 28.0941C25.2361 28.0731 25.1551 28.0941 25.1291 28.1591L25.1031 28.2006C25.1031 28.2136 25.0821 28.2186 25.0771 28.2266C25.0486 28.2266 25.0096 28.2266 25.0096 28.1926L24.9886 28.1586C24.9706 28.1196 24.9236 28.0936 24.8816 28.0806L24.8666 28.0471ZM24.0671 28.7136L24.0331 28.6796C23.9991 28.6536 23.9656 28.6586 23.9316 28.6926C23.8836 28.7719 23.8476 28.8578 23.8246 28.9476V28.9606C23.8066 29.0466 23.7256 29.1066 23.6451 29.0936H23.5671C23.5222 29.0945 23.4796 29.1131 23.4484 29.1453C23.4172 29.1775 23.4 29.2207 23.4006 29.2656C23.4006 29.3856 23.3591 29.5076 23.2861 29.5991L23.2471 29.6406C23.177 29.7251 23.0839 29.7875 22.9791 29.8201L22.9271 29.8331C22.893 29.8417 22.8623 29.8602 22.8387 29.8861C22.815 29.9121 22.7995 29.9444 22.7941 29.9791C22.7941 30.0466 22.7526 30.1146 22.7001 30.1666L22.6326 30.2186C22.5521 30.3071 22.4321 30.3541 22.3121 30.3671L21.9786 30.4011C21.8716 30.4011 21.7806 30.4661 21.7131 30.5676C21.6456 30.6666 21.5466 30.7341 21.4476 30.7471L21.2991 30.7601C21.188 30.7751 21.0751 30.7707 20.9656 30.7471L20.9006 30.7341L20.7181 30.6871C20.69 30.6769 20.6595 30.676 20.6309 30.6845C20.6023 30.6929 20.5771 30.7103 20.5591 30.7341L20.4916 30.8201C20.4508 30.8675 20.3992 30.9044 20.3411 30.9275C20.2831 30.9507 20.2203 30.9594 20.1581 30.9531L19.7256 30.9011C19.6581 30.9011 19.6056 30.8671 19.5461 30.8336C19.4786 30.7946 19.4316 30.7476 19.3846 30.7006L19.2181 30.5001C19.2001 30.4871 19.1661 30.4791 19.1321 30.4871L19.0381 30.5261L18.6656 30.6201C18.5981 30.6411 18.5121 30.6201 18.4466 30.5811C18.3791 30.5266 18.2981 30.5136 18.2176 30.5136H18.1316C18.112 30.5185 18.0937 30.5274 18.0777 30.5396C18.0616 30.5518 18.0482 30.5671 18.0382 30.5846C18.0283 30.6021 18.0219 30.6214 18.0196 30.6414C18.0172 30.6614 18.0189 30.6817 18.0246 30.7011L18.0506 30.8341C18.0716 30.9016 18.0661 30.9801 18.0326 31.0476C17.9991 31.1151 18.0066 31.1806 18.0506 31.2481L18.0921 31.3001C18.1441 31.3806 18.2251 31.4486 18.2926 31.5136C18.3576 31.5811 18.4256 31.6466 18.4776 31.7351L18.5791 31.9146C18.601 31.9591 18.6352 31.9965 18.6776 32.0223C18.72 32.0482 18.7689 32.0614 18.8186 32.0606C18.9176 32.0606 19.0191 32.0946 19.0971 32.1596L19.2976 32.3471C19.3521 32.3941 19.4306 32.4016 19.4851 32.3601L19.5191 32.3471C19.5581 32.3471 19.5841 32.3731 19.5841 32.4146V32.4486C19.5841 32.5346 19.6516 32.6151 19.7376 32.6466L20.0371 32.7141C20.1441 32.7481 20.2506 32.7816 20.3521 32.8471H20.4041C20.4175 32.847 20.4308 32.8441 20.4431 32.8386C20.4554 32.833 20.4663 32.8249 20.4752 32.8148C20.4841 32.8046 20.4907 32.7927 20.4947 32.7799C20.4986 32.767 20.4998 32.7534 20.4981 32.7401V32.5081C20.4981 32.4406 20.5241 32.3726 20.5786 32.3466L20.6126 32.3336C20.6441 32.3466 20.6776 32.3726 20.6646 32.4011V32.5131C20.6646 32.5991 20.6906 32.6796 20.7506 32.7396C20.7789 32.7697 20.8155 32.7908 20.8557 32.8005C20.8959 32.8102 20.9381 32.8079 20.9771 32.7941C21.0576 32.7601 21.1386 32.7526 21.2246 32.7601L21.4721 32.7731C21.5921 32.7861 21.7041 32.7731 21.8056 32.7261C21.9256 32.6871 22.0246 32.6321 22.1181 32.5596L22.1571 32.5336L22.3576 32.3541C22.4192 32.2906 22.5036 32.2541 22.5921 32.2526H22.8576C22.9251 32.2436 22.9878 32.2128 23.0362 32.1649C23.0846 32.117 23.116 32.0545 23.1256 31.9871L23.1516 31.8541C23.1516 31.7656 23.1906 31.6876 23.2506 31.6196C23.3181 31.5521 23.3836 31.5126 23.4511 31.4866L23.5316 31.4526C23.5881 31.4279 23.6386 31.3914 23.6799 31.3456C23.7212 31.2998 23.7523 31.2458 23.7711 31.1871L23.8101 31.0256C23.8441 30.8926 23.9116 30.7601 24.0106 30.6741L24.0236 30.6586C24.1041 30.5936 24.1176 30.4606 24.0651 30.3671L24.0441 30.3201C24.0207 30.2827 24.0067 30.2403 24.003 30.1963C23.9993 30.1524 24.0062 30.1083 24.0231 30.0676C24.0571 29.9736 24.0906 29.8931 24.1431 29.8126L24.2106 29.7186C24.2366 29.6666 24.2366 29.5856 24.1976 29.5391C24.1553 29.4865 24.1315 29.4215 24.1301 29.3541L24.1171 29.2601V29.0336C24.127 28.9591 24.1198 28.8833 24.0961 28.8121L24.0701 28.7341L24.0671 28.7136ZM23.1141 28.2056V28.1876C23.1141 28.1201 23.0726 28.0806 23.0201 28.0806H22.8456C22.7837 28.0936 22.7199 28.0936 22.6581 28.0806H22.3586C22.2051 28.0806 22.0591 28.0521 21.9131 28.0131L21.7516 27.9741L21.6186 27.9326L21.3191 27.8336C21.2422 27.8116 21.1709 27.7735 21.1098 27.7219C21.0488 27.6703 20.9994 27.6062 20.9651 27.5341L20.9311 27.4666C20.8841 27.3676 20.7851 27.3131 20.6861 27.3336C20.5716 27.3336 20.4596 27.3336 20.3526 27.2816L20.2721 27.2476C20.1186 27.1801 20.0066 27.0471 20.0066 26.8676L19.9781 26.6881C19.9601 26.5941 19.9001 26.5086 19.8191 26.4746C19.7253 26.4315 19.6357 26.3801 19.5511 26.3211L19.5196 26.3001C19.4142 26.2194 19.333 26.1113 19.2851 25.9876L19.2721 25.9486C19.2378 25.8406 19.2333 25.7254 19.2591 25.6151L19.2721 25.5736C19.2981 25.4876 19.3061 25.4016 19.3061 25.3081C19.3051 25.2247 19.2713 25.1452 19.2121 25.0866L19.1181 25.0006C19.0648 24.9576 19.0213 24.9038 18.9904 24.8428C18.9595 24.7818 18.9418 24.7149 18.9386 24.6466C18.9233 24.5043 18.9277 24.3606 18.9516 24.2196V24.1806C18.9514 24.1453 18.9374 24.1116 18.9125 24.0867C18.8875 24.0617 18.8538 24.0477 18.8186 24.0476H18.7976C18.7116 24.0476 18.6386 24.0996 18.5971 24.1806C18.5639 24.2689 18.5144 24.3501 18.4511 24.4201L18.4251 24.4541L18.2246 24.6546C18.1571 24.7196 18.1176 24.8211 18.1046 24.9201C18.0921 25.0216 18.065 25.1208 18.0241 25.2146L18.0111 25.2486C17.9789 25.328 17.9258 25.3973 17.8576 25.4491C17.8248 25.4741 17.7978 25.5059 17.7785 25.5423C17.7591 25.5787 17.7479 25.6189 17.7456 25.6601L17.7326 25.9676C17.7326 26.1006 17.7116 26.2356 17.6651 26.3686L17.6521 26.4206C17.635 26.4608 17.6338 26.506 17.6488 26.5471C17.6637 26.5882 17.6936 26.6221 17.7326 26.6421L18.0111 26.7621L18.0371 26.7751C18.0581 26.7751 18.0656 26.7881 18.0711 26.8091C18.0921 26.8351 18.0711 26.8741 18.0501 26.8741L17.9851 26.9081C17.9461 26.9211 17.9176 26.9626 17.9046 27.0096L17.8916 27.0746V27.0876L17.8241 27.4626C17.8111 27.5146 17.8111 27.5746 17.8111 27.6346C17.8111 27.6603 17.8188 27.6854 17.8331 27.7068C17.8474 27.7281 17.8678 27.7448 17.8916 27.7546L18.0376 27.8221C18.1051 27.8611 18.1861 27.9081 18.2381 27.9551L18.3056 28.0096C18.3264 28.0368 18.353 28.059 18.3836 28.0746L18.4121 28.1006C18.458 28.1412 18.4907 28.1947 18.5061 28.2541L18.5711 28.5536C18.5711 28.6341 18.6386 28.7021 18.7041 28.7201L18.8111 28.7541C18.8111 28.7541 18.8321 28.7541 18.8451 28.7671L18.9781 28.8086C19.0851 28.8426 19.1786 28.9026 19.2596 28.9806C19.3401 29.0481 19.4186 29.1341 19.4861 29.2281L19.5121 29.2541C19.5666 29.3216 19.6451 29.3556 19.7256 29.3346C19.8061 29.3136 19.8921 29.3086 19.9781 29.3086H20.0796C20.1446 29.3086 20.2331 29.3266 20.3061 29.3736C20.3711 29.4151 20.4596 29.4411 20.5381 29.4751H20.5591C20.5973 29.4904 20.6387 29.496 20.6796 29.4915C20.7205 29.4869 20.7596 29.4724 20.7936 29.4491C20.8617 29.3954 20.9463 29.3669 21.0331 29.3686L21.3456 29.3866C21.4131 29.3866 21.4786 29.3736 21.5121 29.3216H21.5251L21.6396 29.2146L21.6736 29.1806C21.7 29.1503 21.7323 29.1259 21.7687 29.1089C21.805 29.0918 21.8445 29.0825 21.8846 29.0816H22.1866C22.2646 29.0816 22.3401 29.0141 22.3716 28.9486C22.3891 28.9137 22.4144 28.8834 22.4455 28.8599C22.4766 28.8364 22.5127 28.8203 22.5511 28.8131L22.6866 28.7871C22.7386 28.7871 22.7856 28.7401 22.8066 28.6801C22.8225 28.6182 22.8571 28.5627 22.9056 28.5211L23.0126 28.4141C23.0736 28.3577 23.1139 28.2825 23.1271 28.2006L23.1141 28.2056Z" fill="white"/>
</g>
<path d="M46.256 34.16C45.4667 34.16 44.736 34.016 44.064 33.728C43.4027 33.4293 42.8267 33.0187 42.336 32.496C41.8453 31.9627 41.4667 31.3387 41.2 30.624C40.9333 29.8987 40.8 29.104 40.8 28.24C40.8 27.376 40.9333 26.5867 41.2 25.872C41.4667 25.1467 41.84 24.5227 42.32 24C42.8107 23.4667 43.3867 23.056 44.048 22.768C44.72 22.4693 45.4507 22.32 46.24 22.32C47.104 22.32 47.8773 22.496 48.56 22.848C49.2533 23.2 49.8187 23.696 50.256 24.336C50.704 24.976 50.9813 25.7227 51.088 26.576H49.776C49.648 25.6267 49.2693 24.88 48.64 24.336C48.0213 23.7813 47.2267 23.504 46.256 23.504C45.4347 23.504 44.7147 23.7067 44.096 24.112C43.4773 24.5067 42.9973 25.0613 42.656 25.776C42.3147 26.48 42.144 27.3013 42.144 28.24C42.144 29.1787 42.3147 30.0053 42.656 30.72C42.9973 31.424 43.4773 31.9787 44.096 32.384C44.7147 32.7787 45.4293 32.976 46.24 32.976C47.232 32.976 48.0427 32.6987 48.672 32.144C49.312 31.5893 49.6907 30.8427 49.808 29.904H51.12C51.0133 30.7573 50.736 31.504 50.288 32.144C49.8507 32.784 49.2853 33.28 48.592 33.632C47.9093 33.984 47.1307 34.16 46.256 34.16ZM56.4845 34.16C55.6845 34.16 54.9805 33.9733 54.3725 33.6C53.7645 33.2267 53.2898 32.72 52.9485 32.08C52.6178 31.4293 52.4525 30.6987 52.4525 29.888C52.4525 29.0667 52.6232 28.3413 52.9645 27.712C53.3058 27.0827 53.7752 26.5867 54.3725 26.224C54.9805 25.8613 55.6845 25.68 56.4845 25.68C57.2952 25.68 57.9992 25.8613 58.5965 26.224C59.2045 26.5867 59.6738 27.0827 60.0045 27.712C60.3458 28.3413 60.5165 29.0667 60.5165 29.888C60.5165 30.6987 60.3458 31.4293 60.0045 32.08C59.6738 32.72 59.2045 33.2267 58.5965 33.6C57.9992 33.9733 57.2952 34.16 56.4845 34.16ZM56.4845 33.072C57.0392 33.072 57.5192 32.9387 57.9245 32.672C58.3298 32.3947 58.6445 32.016 58.8685 31.536C59.0925 31.056 59.2045 30.5013 59.2045 29.872C59.2045 28.9333 58.9538 28.1813 58.4525 27.616C57.9618 27.0507 57.3058 26.768 56.4845 26.768C55.6738 26.768 55.0178 27.0507 54.5165 27.616C54.0152 28.1813 53.7645 28.9333 53.7645 29.872C53.7645 30.5013 53.8765 31.056 54.1005 31.536C54.3245 32.016 54.6392 32.3947 55.0445 32.672C55.4605 32.9387 55.9405 33.072 56.4845 33.072ZM68.3723 34V32.096L68.5323 32.144C68.3296 32.7627 67.9563 33.2533 67.4123 33.616C66.8789 33.9787 66.2389 34.16 65.4923 34.16C64.7563 34.16 64.1109 33.984 63.5563 33.632C63.0123 33.28 62.5856 32.7893 62.2763 32.16C61.9776 31.5307 61.8283 30.7947 61.8283 29.952C61.8283 29.0987 61.9829 28.352 62.2923 27.712C62.6016 27.072 63.0336 26.576 63.5883 26.224C64.1429 25.872 64.7936 25.696 65.5403 25.696C66.3083 25.696 66.9536 25.8827 67.4763 26.256C67.9989 26.6293 68.3563 27.1573 68.5483 27.84L68.2923 27.872V22.48H69.5723V34H68.3723ZM65.7323 33.04C66.5536 33.04 67.1936 32.7627 67.6523 32.208C68.1216 31.6427 68.3563 30.8747 68.3563 29.904C68.3563 28.9547 68.1216 28.2027 67.6523 27.648C67.1829 27.0933 66.5429 26.816 65.7323 26.816C64.9216 26.816 64.2869 27.0933 63.8283 27.648C63.3696 28.2027 63.1403 28.9707 63.1403 29.952C63.1403 30.912 63.3696 31.6693 63.8283 32.224C64.2869 32.768 64.9216 33.04 65.7323 33.04ZM75.4834 34.16C74.7047 34.16 74.0167 33.9787 73.4194 33.616C72.822 33.2427 72.3527 32.736 72.0114 32.096C71.67 31.456 71.4994 30.72 71.4994 29.888C71.4994 29.056 71.6647 28.3253 71.9954 27.696C72.3367 27.056 72.8114 26.56 73.4194 26.208C74.0274 25.856 74.726 25.68 75.5154 25.68C76.2727 25.68 76.9287 25.8453 77.4834 26.176C78.0487 26.5067 78.4807 26.9707 78.7794 27.568C79.0887 28.1653 79.2434 28.8693 79.2434 29.68C79.2434 29.7867 79.238 29.888 79.2274 29.984C79.2274 30.08 79.2167 30.1867 79.1954 30.304H72.4594V29.232H78.4114L77.9954 29.824C77.9954 28.8427 77.7767 28.0907 77.3394 27.568C76.9127 27.0347 76.3047 26.768 75.5154 26.768C74.7047 26.768 74.0487 27.0507 73.5474 27.616C73.0567 28.1707 72.8114 28.9227 72.8114 29.872C72.8114 30.8427 73.0567 31.6213 73.5474 32.208C74.0487 32.784 74.7154 33.072 75.5474 33.072C76.07 33.072 76.5287 32.96 76.9234 32.736C77.318 32.5013 77.606 32.1707 77.7874 31.744H79.0034C78.7367 32.4907 78.2887 33.0827 77.6594 33.52C77.0407 33.9467 76.3154 34.16 75.4834 34.16ZM82.694 34L80.198 25.84H81.494L83.414 32.832H83.094L85.398 25.84H86.438L88.758 32.832H88.438L90.342 25.84H91.574L89.078 34H88.038L85.734 27.168H86.07L83.734 34H82.694ZM98.1005 34C98.0578 33.8187 98.0258 33.6107 98.0045 33.376C97.9938 33.1413 97.9885 32.8427 97.9885 32.48H97.9085V28.576C97.9085 27.9573 97.7645 27.504 97.4765 27.216C97.1992 26.9173 96.7458 26.768 96.1165 26.768C95.4978 26.768 95.0018 26.896 94.6285 27.152C94.2658 27.3973 94.0632 27.7493 94.0205 28.208H92.7885C92.8418 27.4187 93.1725 26.8 93.7805 26.352C94.3885 25.904 95.1832 25.68 96.1645 25.68C97.1778 25.68 97.9298 25.92 98.4205 26.4C98.9112 26.88 99.1565 27.6 99.1565 28.56V32.48C99.1565 32.7147 99.1725 32.96 99.2045 33.216C99.2365 33.4613 99.2792 33.7227 99.3325 34H98.1005ZM95.3005 34.16C94.4578 34.16 93.7858 33.9573 93.2845 33.552C92.7938 33.136 92.5485 32.5707 92.5485 31.856C92.5485 31.1413 92.7938 30.5867 93.2845 30.192C93.7752 29.7973 94.4898 29.52 95.4285 29.36L98.2765 28.88V29.936L95.6205 30.352C95.0232 30.448 94.5698 30.608 94.2605 30.832C93.9512 31.056 93.7965 31.3813 93.7965 31.808C93.7965 32.224 93.9352 32.5387 94.2125 32.752C94.5005 32.9653 94.9218 33.072 95.4765 33.072C96.1912 33.072 96.7725 32.912 97.2205 32.592C97.6792 32.2613 97.9085 31.8347 97.9085 31.312L98.1165 32.448C97.9458 32.992 97.6098 33.4133 97.1085 33.712C96.6178 34.0107 96.0152 34.16 95.3005 34.16ZM101.624 34V25.84H102.824V27.92H102.904V34H101.624ZM102.904 29.744L102.696 27.808C102.888 27.1147 103.229 26.5867 103.72 26.224C104.21 25.8613 104.776 25.68 105.416 25.68C105.682 25.68 105.864 25.7013 105.96 25.744V26.976C105.906 26.9547 105.832 26.944 105.736 26.944C105.64 26.9333 105.522 26.928 105.384 26.928C104.573 26.928 103.954 27.1733 103.528 27.664C103.112 28.144 102.904 28.8373 102.904 29.744ZM110.157 34.16C109.155 34.16 108.355 33.9307 107.757 33.472C107.16 33.0027 106.819 32.3413 106.733 31.488H107.965C108.04 32.0107 108.269 32.4107 108.653 32.688C109.037 32.9653 109.549 33.104 110.189 33.104C110.755 33.104 111.197 32.9973 111.517 32.784C111.837 32.5707 111.997 32.2667 111.997 31.872C111.997 31.5947 111.907 31.3547 111.725 31.152C111.544 30.9387 111.181 30.7627 110.637 30.624L109.325 30.288C108.579 30.096 108.019 29.8027 107.645 29.408C107.272 29.0027 107.085 28.5227 107.085 27.968C107.085 27.264 107.347 26.7093 107.869 26.304C108.392 25.888 109.101 25.68 109.997 25.68C110.883 25.68 111.603 25.8933 112.157 26.32C112.712 26.7467 113.027 27.3387 113.101 28.096H111.869C111.795 27.6587 111.592 27.3227 111.261 27.088C110.931 26.8533 110.493 26.736 109.949 26.736C109.427 26.736 109.021 26.8373 108.733 27.04C108.445 27.232 108.301 27.5093 108.301 27.872C108.301 28.1493 108.403 28.3893 108.605 28.592C108.819 28.7947 109.171 28.9653 109.661 29.104L110.941 29.456C111.699 29.6587 112.269 29.968 112.653 30.384C113.037 30.8 113.229 31.3013 113.229 31.888C113.229 32.6027 112.957 33.1627 112.413 33.568C111.869 33.9627 111.117 34.16 110.157 34.16Z" fill="white"/>
<path d="M207.667 27.3335V28.6669H215.667L212 32.3335L212.947 33.2802L218.227 28.0002L212.947 22.7202L212 23.6669L215.667 27.3335H207.667Z" fill="white"/>
<defs>
<clipPath id="clip0_86_26578">
<rect width="16" height="16" fill="white" transform="translate(16 20)"/>
</clipPath>
</defs>
</svg>
