<svg width="237" height="56" viewBox="0 0 237 56" fill="none" xmlns="http://www.w3.org/2000/svg">
<rect width="237" height="56" rx="8" fill="#333333"/>
<g clip-path="url(#clip0_86_26569)">
<path d="M28.25 20H19.75C17.6789 20 16 21.6789 16 23.75V32.25C16 34.3211 17.6789 36 19.75 36H28.25C30.3211 36 32 34.3211 32 32.25V23.75C32 21.6789 30.3211 20 28.25 20Z" fill="white"/>
<path fill-rule="evenodd" clip-rule="evenodd" d="M21.4609 29.2011C21.4609 29.8397 21.0675 30.8074 19.8222 30.8054H18.25V25.1875H19.8554C21.0564 25.1875 21.4603 26.1537 21.4606 26.7928L21.4609 29.2011ZM19.9114 26.2387C20.0429 26.2387 20.1747 26.2879 20.3061 26.3864C20.4373 26.4848 20.5034 26.6329 20.5036 26.8298V29.1946C20.5036 29.3919 20.438 29.5396 20.3065 29.6381C20.175 29.7365 20.0432 29.7858 19.9117 29.7858H19.3204V26.2387H19.9114Z" fill="#333333"/>
<path d="M24.8724 26.1908H23.067V27.4952H24.1706V28.4992H23.067V29.8034H24.8727V30.8074H22.7657C22.3876 30.8172 22.0732 30.5177 22.0637 30.1389V25.891C22.0546 25.5124 22.3537 25.198 22.7316 25.1885H24.8727L24.8724 26.1908ZM28.3842 30.1052C27.9369 31.1493 27.1356 30.9415 26.7767 30.1052L25.4711 25.1889H26.5747L27.5815 29.05L28.5834 25.1889H29.6874L28.3842 30.1052Z" fill="#333333"/>
</g>
<path d="M42.16 34V32.848H45.248C46.208 32.848 47.0347 32.656 47.728 32.272C48.4213 31.8773 48.9547 31.328 49.328 30.624C49.7013 29.92 49.888 29.104 49.888 28.176C49.888 27.2587 49.7013 26.4587 49.328 25.776C48.9547 25.0933 48.4213 24.5653 47.728 24.192C47.0453 23.8187 46.2187 23.632 45.248 23.632H42.16V22.48H45.248C46.4533 22.48 47.504 22.72 48.4 23.2C49.296 23.6693 49.9893 24.336 50.48 25.2C50.9813 26.0533 51.232 27.056 51.232 28.208C51.232 29.36 50.9813 30.3733 50.48 31.248C49.9787 32.112 49.28 32.7893 48.384 33.28C47.4987 33.76 46.4587 34 45.264 34H42.16ZM41.376 34V22.48H42.688V34H41.376ZM56.5928 34.16C55.8141 34.16 55.1261 33.9787 54.5288 33.616C53.9314 33.2427 53.4621 32.736 53.1208 32.096C52.7794 31.456 52.6088 30.72 52.6088 29.888C52.6088 29.056 52.7741 28.3253 53.1048 27.696C53.4461 27.056 53.9208 26.56 54.5288 26.208C55.1368 25.856 55.8354 25.68 56.6248 25.68C57.3821 25.68 58.0381 25.8453 58.5928 26.176C59.1581 26.5067 59.5901 26.9707 59.8888 27.568C60.1981 28.1653 60.3528 28.8693 60.3528 29.68C60.3528 29.7867 60.3474 29.888 60.3368 29.984C60.3368 30.08 60.3261 30.1867 60.3048 30.304H53.5688V29.232H59.5208L59.1048 29.824C59.1048 28.8427 58.8861 28.0907 58.4488 27.568C58.0221 27.0347 57.4141 26.768 56.6248 26.768C55.8141 26.768 55.1581 27.0507 54.6568 27.616C54.1661 28.1707 53.9208 28.9227 53.9208 29.872C53.9208 30.8427 54.1661 31.6213 54.6568 32.208C55.1581 32.784 55.8248 33.072 56.6568 33.072C57.1794 33.072 57.6381 32.96 58.0328 32.736C58.4274 32.5013 58.7154 32.1707 58.8968 31.744H60.1128C59.8461 32.4907 59.3981 33.0827 58.7688 33.52C58.1501 33.9467 57.4248 34.16 56.5928 34.16ZM64.4765 34L61.1005 25.84H62.4765L65.2925 33.136H64.7805L67.5805 25.84H68.8925L65.5165 34H64.4765ZM69.0129 34V32.352H70.6609V34H69.0129ZM75.294 34.144C74.3873 34.144 73.726 33.9413 73.31 33.536C72.9047 33.12 72.702 32.5227 72.702 31.744V23.936L73.982 23.456V31.728C73.982 32.1867 74.0993 32.5227 74.334 32.736C74.5687 32.9493 74.9527 33.056 75.486 33.056C75.6993 33.056 75.8807 33.0453 76.03 33.024C76.19 32.992 76.318 32.9547 76.414 32.912V34C76.3073 34.0427 76.1527 34.0747 75.95 34.096C75.758 34.128 75.5393 34.144 75.294 34.144ZM71.022 26.928V25.84H76.414V26.928H71.022ZM81.2658 34.16C80.4658 34.16 79.7618 33.9733 79.1538 33.6C78.5458 33.2267 78.0711 32.72 77.7298 32.08C77.3991 31.4293 77.2338 30.6987 77.2338 29.888C77.2338 29.0667 77.4044 28.3413 77.7458 27.712C78.0871 27.0827 78.5564 26.5867 79.1538 26.224C79.7618 25.8613 80.4658 25.68 81.2658 25.68C82.0764 25.68 82.7804 25.8613 83.3778 26.224C83.9858 26.5867 84.4551 27.0827 84.7858 27.712C85.1271 28.3413 85.2978 29.0667 85.2978 29.888C85.2978 30.6987 85.1271 31.4293 84.7858 32.08C84.4551 32.72 83.9858 33.2267 83.3778 33.6C82.7804 33.9733 82.0764 34.16 81.2658 34.16ZM81.2658 33.072C81.8204 33.072 82.3004 32.9387 82.7058 32.672C83.1111 32.3947 83.4258 32.016 83.6498 31.536C83.8738 31.056 83.9858 30.5013 83.9858 29.872C83.9858 28.9333 83.7351 28.1813 83.2338 27.616C82.7431 27.0507 82.0871 26.768 81.2658 26.768C80.4551 26.768 79.7991 27.0507 79.2978 27.616C78.7964 28.1813 78.5458 28.9333 78.5458 29.872C78.5458 30.5013 78.6578 31.056 78.8818 31.536C79.1058 32.016 79.4204 32.3947 79.8258 32.672C80.2418 32.9387 80.7218 33.072 81.2658 33.072Z" fill="white"/>
<path d="M207.667 27.3335V28.6669H215.667L212 32.3335L212.947 33.2802L218.227 28.0002L212.947 22.7202L212 23.6669L215.667 27.3335H207.667Z" fill="white"/>
<defs>
<clipPath id="clip0_86_26569">
<rect width="16" height="16" fill="white" transform="translate(16 20)"/>
</clipPath>
</defs>
</svg>
