<svg width="237" height="56" viewBox="0 0 237 56" fill="none" xmlns="http://www.w3.org/2000/svg">
<rect width="237" height="56" rx="8" fill="#2442AC"/>
<g clip-path="url(#clip0_86_26454)">
<path d="M35.9996 28.061C35.9996 22.5035 31.5221 17.9985 25.9996 17.9985C20.4746 17.9998 15.9971 22.5035 15.9971 28.0623C15.9971 33.0835 19.6546 37.246 24.4346 38.001V30.9698H21.8971V28.0623H24.4371V25.8435C24.4371 23.3223 25.9308 21.9298 28.2146 21.9298C29.3096 21.9298 30.4533 22.126 30.4533 22.126V24.601H29.1921C27.9508 24.601 27.5633 25.3773 27.5633 26.1735V28.061H30.3358L29.8933 30.9685H27.5621V37.9998C32.3421 37.2448 35.9996 33.0823 35.9996 28.061Z" fill="white"/>
</g>
<path d="M45.376 34V22.48H46.688V34H45.376ZM46.048 29.056V27.904H52.256V29.056H46.048ZM46.048 23.632V22.48H52.704V23.632H46.048ZM59.0849 34C59.0422 33.8187 59.0102 33.6107 58.9889 33.376C58.9782 33.1413 58.9729 32.8427 58.9729 32.48H58.8929V28.576C58.8929 27.9573 58.7489 27.504 58.4609 27.216C58.1835 26.9173 57.7302 26.768 57.1009 26.768C56.4822 26.768 55.9862 26.896 55.6129 27.152C55.2502 27.3973 55.0475 27.7493 55.0049 28.208H53.7729C53.8262 27.4187 54.1569 26.8 54.7649 26.352C55.3729 25.904 56.1675 25.68 57.1489 25.68C58.1622 25.68 58.9142 25.92 59.4049 26.4C59.8955 26.88 60.1409 27.6 60.1409 28.56V32.48C60.1409 32.7147 60.1569 32.96 60.1889 33.216C60.2209 33.4613 60.2635 33.7227 60.3169 34H59.0849ZM56.2849 34.16C55.4422 34.16 54.7702 33.9573 54.2689 33.552C53.7782 33.136 53.5329 32.5707 53.5329 31.856C53.5329 31.1413 53.7782 30.5867 54.2689 30.192C54.7595 29.7973 55.4742 29.52 56.4129 29.36L59.2609 28.88V29.936L56.6049 30.352C56.0075 30.448 55.5542 30.608 55.2449 30.832C54.9355 31.056 54.7809 31.3813 54.7809 31.808C54.7809 32.224 54.9195 32.5387 55.1969 32.752C55.4849 32.9653 55.9062 33.072 56.4609 33.072C57.1755 33.072 57.7569 32.912 58.2049 32.592C58.6635 32.2613 58.8929 31.8347 58.8929 31.312L59.1009 32.448C58.9302 32.992 58.5942 33.4133 58.0929 33.712C57.6022 34.0107 56.9995 34.16 56.2849 34.16ZM65.8401 34.16C65.0935 34.16 64.4268 33.9787 63.8401 33.616C63.2641 33.2427 62.8055 32.736 62.4641 32.096C62.1335 31.4453 61.9681 30.7093 61.9681 29.888C61.9681 29.0667 62.1335 28.3413 62.4641 27.712C62.8055 27.0827 63.2641 26.5867 63.8401 26.224C64.4268 25.8613 65.0881 25.68 65.8241 25.68C66.4321 25.68 66.9761 25.7973 67.4561 26.032C67.9468 26.2667 68.3468 26.6027 68.6561 27.04C68.9761 27.4667 69.1788 27.968 69.2641 28.544H68.0801C67.9735 28.0213 67.7281 27.5947 67.3441 27.264C66.9601 26.9333 66.4641 26.768 65.8561 26.768C65.3335 26.768 64.8801 26.896 64.4961 27.152C64.1121 27.408 63.8135 27.7707 63.6001 28.24C63.3868 28.7093 63.2801 29.2587 63.2801 29.888C63.2801 30.5173 63.3868 31.072 63.6001 31.552C63.8135 32.032 64.1121 32.4053 64.4961 32.672C64.8908 32.9387 65.3495 33.072 65.8721 33.072C66.4588 33.072 66.9495 32.912 67.3441 32.592C67.7388 32.2613 67.9895 31.8347 68.0961 31.312H69.2801C69.1841 31.8773 68.9708 32.3787 68.6401 32.816C68.3201 33.2427 67.9201 33.5733 67.4401 33.808C66.9601 34.0427 66.4268 34.16 65.8401 34.16ZM74.4521 34.16C73.6735 34.16 72.9855 33.9787 72.3881 33.616C71.7908 33.2427 71.3215 32.736 70.9801 32.096C70.6388 31.456 70.4681 30.72 70.4681 29.888C70.4681 29.056 70.6335 28.3253 70.9641 27.696C71.3055 27.056 71.7801 26.56 72.3881 26.208C72.9961 25.856 73.6948 25.68 74.4841 25.68C75.2415 25.68 75.8975 25.8453 76.4521 26.176C77.0175 26.5067 77.4495 26.9707 77.7481 27.568C78.0575 28.1653 78.2121 28.8693 78.2121 29.68C78.2121 29.7867 78.2068 29.888 78.1961 29.984C78.1961 30.08 78.1855 30.1867 78.1641 30.304H71.4281V29.232H77.3801L76.9641 29.824C76.9641 28.8427 76.7455 28.0907 76.3081 27.568C75.8815 27.0347 75.2735 26.768 74.4841 26.768C73.6735 26.768 73.0175 27.0507 72.5161 27.616C72.0255 28.1707 71.7801 28.9227 71.7801 29.872C71.7801 30.8427 72.0255 31.6213 72.5161 32.208C73.0175 32.784 73.6841 33.072 74.5161 33.072C75.0388 33.072 75.4975 32.96 75.8921 32.736C76.2868 32.5013 76.5748 32.1707 76.7561 31.744H77.9721C77.7055 32.4907 77.2575 33.0827 76.6281 33.52C76.0095 33.9467 75.2841 34.16 74.4521 34.16ZM84.1714 34.144C83.4034 34.144 82.758 33.9573 82.2354 33.584C81.7127 33.2107 81.3554 32.6827 81.1634 32L81.3394 31.968V34H80.1394V22.48H81.4194V27.744L81.2434 27.696C81.446 27.0667 81.814 26.576 82.3474 26.224C82.8914 25.8613 83.5367 25.68 84.2834 25.68C85.0087 25.68 85.638 25.856 86.1714 26.208C86.7154 26.56 87.1367 27.0507 87.4354 27.68C87.734 28.3093 87.8834 29.0453 87.8834 29.888C87.8834 30.7413 87.7287 31.488 87.4194 32.128C87.11 32.768 86.678 33.264 86.1234 33.616C85.5687 33.968 84.918 34.144 84.1714 34.144ZM83.9794 33.024C84.79 33.024 85.4247 32.7467 85.8834 32.192C86.342 31.6267 86.5714 30.8587 86.5714 29.888C86.5714 28.928 86.342 28.176 85.8834 27.632C85.4247 27.0773 84.79 26.8 83.9794 26.8C83.1687 26.8 82.5287 27.0827 82.0594 27.648C81.59 28.2027 81.3554 28.9653 81.3554 29.936C81.3554 30.8853 81.59 31.6373 82.0594 32.192C82.5287 32.7467 83.1687 33.024 83.9794 33.024ZM93.2345 34.16C92.4345 34.16 91.7305 33.9733 91.1225 33.6C90.5145 33.2267 90.0398 32.72 89.6985 32.08C89.3678 31.4293 89.2025 30.6987 89.2025 29.888C89.2025 29.0667 89.3732 28.3413 89.7145 27.712C90.0558 27.0827 90.5252 26.5867 91.1225 26.224C91.7305 25.8613 92.4345 25.68 93.2345 25.68C94.0452 25.68 94.7492 25.8613 95.3465 26.224C95.9545 26.5867 96.4238 27.0827 96.7545 27.712C97.0958 28.3413 97.2665 29.0667 97.2665 29.888C97.2665 30.6987 97.0958 31.4293 96.7545 32.08C96.4238 32.72 95.9545 33.2267 95.3465 33.6C94.7492 33.9733 94.0452 34.16 93.2345 34.16ZM93.2345 33.072C93.7892 33.072 94.2692 32.9387 94.6745 32.672C95.0798 32.3947 95.3945 32.016 95.6185 31.536C95.8425 31.056 95.9545 30.5013 95.9545 29.872C95.9545 28.9333 95.7038 28.1813 95.2025 27.616C94.7118 27.0507 94.0558 26.768 93.2345 26.768C92.4238 26.768 91.7678 27.0507 91.2665 27.616C90.7652 28.1813 90.5145 28.9333 90.5145 29.872C90.5145 30.5013 90.6265 31.056 90.8505 31.536C91.0745 32.016 91.3892 32.3947 91.7945 32.672C92.2105 32.9387 92.6905 33.072 93.2345 33.072ZM102.578 34.16C101.778 34.16 101.074 33.9733 100.466 33.6C99.8583 33.2267 99.3836 32.72 99.0423 32.08C98.7116 31.4293 98.5463 30.6987 98.5463 29.888C98.5463 29.0667 98.7169 28.3413 99.0583 27.712C99.3996 27.0827 99.8689 26.5867 100.466 26.224C101.074 25.8613 101.778 25.68 102.578 25.68C103.389 25.68 104.093 25.8613 104.69 26.224C105.298 26.5867 105.768 27.0827 106.098 27.712C106.44 28.3413 106.61 29.0667 106.61 29.888C106.61 30.6987 106.44 31.4293 106.098 32.08C105.768 32.72 105.298 33.2267 104.69 33.6C104.093 33.9733 103.389 34.16 102.578 34.16ZM102.578 33.072C103.133 33.072 103.613 32.9387 104.018 32.672C104.424 32.3947 104.738 32.016 104.962 31.536C105.186 31.056 105.298 30.5013 105.298 29.872C105.298 28.9333 105.048 28.1813 104.546 27.616C104.056 27.0507 103.4 26.768 102.578 26.768C101.768 26.768 101.112 27.0507 100.61 27.616C100.109 28.1813 99.8583 28.9333 99.8583 29.872C99.8583 30.5013 99.9703 31.056 100.194 31.536C100.418 32.016 100.733 32.3947 101.138 32.672C101.554 32.9387 102.034 33.072 102.578 33.072ZM108.53 34V22.16H109.81V34H108.53ZM113.858 34L109.522 29.76L113.698 25.84H115.458L110.77 30.128L110.85 29.376L115.618 34H113.858Z" fill="white"/>
<path d="M207.667 27.3335V28.6669H215.667L212 32.3335L212.947 33.2802L218.227 28.0002L212.947 22.7202L212 23.6669L215.667 27.3335H207.667Z" fill="white"/>
<defs>
<clipPath id="clip0_86_26454">
<rect width="20" height="20" fill="white" transform="translate(16 18)"/>
</clipPath>
</defs>
</svg>
