<svg width="237" height="56" viewBox="0 0 237 56" fill="none" xmlns="http://www.w3.org/2000/svg">
<rect width="237" height="56" rx="8" fill="#302267"/>
<path d="M29.7503 29.0016L26.8337 30.9458V33.9425L31.9978 30.5L29.7503 29.0016ZM28.2478 28L26.0003 26.5016L23.7528 28L26.0003 29.4983L28.2478 28ZM32.667 27.0566L31.2528 28L32.667 28.9433V27.0566ZM31.9978 25.5L26.8337 22.0575V25.0541L29.7503 26.9983L31.9978 25.5ZM22.2503 26.9983L25.167 25.0541V22.0575L20.0028 25.5L22.2503 26.9983ZM20.0028 30.5L25.167 33.9425V30.9458L22.2503 29.0016L20.0028 30.5ZM19.3337 28.9433L20.7478 28L19.3337 27.0566V28.9433ZM17.667 25.5C17.667 25.3628 17.7008 25.2278 17.7655 25.1068C17.8302 24.9859 17.9237 24.8828 18.0378 24.8066L25.5378 19.8066C25.6748 19.7153 25.8357 19.6665 26.0003 19.6665C26.1649 19.6665 26.3259 19.7153 26.4628 19.8066L33.9628 24.8066C34.0769 24.8828 34.1705 24.9859 34.2352 25.1068C34.2998 25.2278 34.3337 25.3628 34.3337 25.5V30.5C34.3337 30.6371 34.2998 30.7722 34.2352 30.8931C34.1705 31.0141 34.0769 31.1172 33.9628 31.1933L26.4628 36.1933C26.3259 36.2847 26.1649 36.3334 26.0003 36.3334C25.8357 36.3334 25.6748 36.2847 25.5378 36.1933L18.0378 31.1933C17.9237 31.1172 17.8302 31.0141 17.7655 30.8931C17.7008 30.7722 17.667 30.6371 17.667 30.5V25.5Z" fill="white"/>
<path d="M45.952 34V24.688C45.952 23.9413 46.1653 23.36 46.592 22.944C47.0293 22.528 47.6907 22.32 48.576 22.32C48.7893 22.32 48.9547 22.3307 49.072 22.352C49.2 22.3733 49.3067 22.4 49.392 22.432V23.44C49.3173 23.4187 49.2107 23.3973 49.072 23.376C48.944 23.3547 48.8053 23.344 48.656 23.344C48.1653 23.344 47.8027 23.4667 47.568 23.712C47.344 23.9573 47.232 24.304 47.232 24.752V34H45.952ZM44.272 26.928V25.84H49.216V26.928H44.272ZM50.9363 34V25.84H52.1363V27.92H52.2163V34H50.9363ZM52.2163 29.744L52.0082 27.808C52.2003 27.1147 52.5416 26.5867 53.0323 26.224C53.5229 25.8613 54.0883 25.68 54.7283 25.68C54.9949 25.68 55.1763 25.7013 55.2723 25.744V26.976C55.2189 26.9547 55.1443 26.944 55.0483 26.944C54.9523 26.9333 54.8349 26.928 54.6963 26.928C53.8856 26.928 53.2669 27.1733 52.8403 27.664C52.4243 28.144 52.2163 28.8373 52.2163 29.744ZM59.999 34.16C59.2203 34.16 58.5323 33.9787 57.935 33.616C57.3377 33.2427 56.8683 32.736 56.527 32.096C56.1857 31.456 56.015 30.72 56.015 29.888C56.015 29.056 56.1803 28.3253 56.511 27.696C56.8523 27.056 57.327 26.56 57.935 26.208C58.543 25.856 59.2417 25.68 60.031 25.68C60.7883 25.68 61.4443 25.8453 61.999 26.176C62.5643 26.5067 62.9963 26.9707 63.295 27.568C63.6043 28.1653 63.759 28.8693 63.759 29.68C63.759 29.7867 63.7537 29.888 63.743 29.984C63.743 30.08 63.7323 30.1867 63.711 30.304H56.975V29.232H62.927L62.511 29.824C62.511 28.8427 62.2923 28.0907 61.855 27.568C61.4283 27.0347 60.8203 26.768 60.031 26.768C59.2203 26.768 58.5643 27.0507 58.063 27.616C57.5723 28.1707 57.327 28.9227 57.327 29.872C57.327 30.8427 57.5723 31.6213 58.063 32.208C58.5643 32.784 59.231 33.072 60.063 33.072C60.5857 33.072 61.0443 32.96 61.439 32.736C61.8337 32.5013 62.1217 32.1707 62.303 31.744H63.519C63.2523 32.4907 62.8043 33.0827 62.175 33.52C61.5563 33.9467 60.831 34.16 59.999 34.16ZM69.0303 34.16C68.2516 34.16 67.5636 33.9787 66.9663 33.616C66.3689 33.2427 65.8996 32.736 65.5583 32.096C65.2169 31.456 65.0463 30.72 65.0463 29.888C65.0463 29.056 65.2116 28.3253 65.5423 27.696C65.8836 27.056 66.3583 26.56 66.9663 26.208C67.5743 25.856 68.2729 25.68 69.0623 25.68C69.8196 25.68 70.4756 25.8453 71.0303 26.176C71.5956 26.5067 72.0276 26.9707 72.3263 27.568C72.6356 28.1653 72.7903 28.8693 72.7903 29.68C72.7903 29.7867 72.7849 29.888 72.7743 29.984C72.7743 30.08 72.7636 30.1867 72.7423 30.304H66.0063V29.232H71.9583L71.5423 29.824C71.5423 28.8427 71.3236 28.0907 70.8863 27.568C70.4596 27.0347 69.8516 26.768 69.0623 26.768C68.2516 26.768 67.5956 27.0507 67.0943 27.616C66.6036 28.1707 66.3583 28.9227 66.3583 29.872C66.3583 30.8427 66.6036 31.6213 67.0943 32.208C67.5956 32.784 68.2623 33.072 69.0943 33.072C69.6169 33.072 70.0756 32.96 70.4703 32.736C70.8649 32.5013 71.1529 32.1707 71.3343 31.744H72.5503C72.2836 32.4907 71.8356 33.0827 71.2063 33.52C70.5876 33.9467 69.8623 34.16 69.0303 34.16ZM79.631 34.16C78.8417 34.16 78.111 34.016 77.439 33.728C76.7777 33.4293 76.2017 33.0187 75.711 32.496C75.2203 31.9627 74.8417 31.3387 74.575 30.624C74.3083 29.8987 74.175 29.104 74.175 28.24C74.175 27.376 74.3083 26.5867 74.575 25.872C74.8417 25.1467 75.215 24.5227 75.695 24C76.1857 23.4667 76.7617 23.056 77.423 22.768C78.095 22.4693 78.8257 22.32 79.615 22.32C80.479 22.32 81.2523 22.496 81.935 22.848C82.6283 23.2 83.1937 23.696 83.631 24.336C84.079 24.976 84.3563 25.7227 84.463 26.576H83.151C83.023 25.6267 82.6443 24.88 82.015 24.336C81.3963 23.7813 80.6017 23.504 79.631 23.504C78.8097 23.504 78.0897 23.7067 77.471 24.112C76.8523 24.5067 76.3723 25.0613 76.031 25.776C75.6897 26.48 75.519 27.3013 75.519 28.24C75.519 29.1787 75.6897 30.0053 76.031 30.72C76.3723 31.424 76.8523 31.9787 77.471 32.384C78.0897 32.7787 78.8043 32.976 79.615 32.976C80.607 32.976 81.4177 32.6987 82.047 32.144C82.687 31.5893 83.0657 30.8427 83.183 29.904H84.495C84.3883 30.7573 84.111 31.504 83.663 32.144C83.2257 32.784 82.6603 33.28 81.967 33.632C81.2843 33.984 80.5057 34.16 79.631 34.16ZM89.8595 34.16C89.0595 34.16 88.3555 33.9733 87.7475 33.6C87.1395 33.2267 86.6648 32.72 86.3235 32.08C85.9928 31.4293 85.8275 30.6987 85.8275 29.888C85.8275 29.0667 85.9982 28.3413 86.3395 27.712C86.6808 27.0827 87.1502 26.5867 87.7475 26.224C88.3555 25.8613 89.0595 25.68 89.8595 25.68C90.6702 25.68 91.3742 25.8613 91.9715 26.224C92.5795 26.5867 93.0488 27.0827 93.3795 27.712C93.7208 28.3413 93.8915 29.0667 93.8915 29.888C93.8915 30.6987 93.7208 31.4293 93.3795 32.08C93.0488 32.72 92.5795 33.2267 91.9715 33.6C91.3742 33.9733 90.6702 34.16 89.8595 34.16ZM89.8595 33.072C90.4142 33.072 90.8942 32.9387 91.2995 32.672C91.7048 32.3947 92.0195 32.016 92.2435 31.536C92.4675 31.056 92.5795 30.5013 92.5795 29.872C92.5795 28.9333 92.3288 28.1813 91.8275 27.616C91.3368 27.0507 90.6808 26.768 89.8595 26.768C89.0488 26.768 88.3928 27.0507 87.8915 27.616C87.3902 28.1813 87.1395 28.9333 87.1395 29.872C87.1395 30.5013 87.2515 31.056 87.4755 31.536C87.6995 32.016 88.0142 32.3947 88.4195 32.672C88.8355 32.9387 89.3155 33.072 89.8595 33.072ZM101.747 34V32.096L101.907 32.144C101.705 32.7627 101.331 33.2533 100.787 33.616C100.254 33.9787 99.6139 34.16 98.8673 34.16C98.1313 34.16 97.4859 33.984 96.9313 33.632C96.3873 33.28 95.9606 32.7893 95.6513 32.16C95.3526 31.5307 95.2033 30.7947 95.2033 29.952C95.2033 29.0987 95.3579 28.352 95.6673 27.712C95.9766 27.072 96.4086 26.576 96.9633 26.224C97.5179 25.872 98.1686 25.696 98.9153 25.696C99.6833 25.696 100.329 25.8827 100.851 26.256C101.374 26.6293 101.731 27.1573 101.923 27.84L101.667 27.872V22.48H102.947V34H101.747ZM99.1073 33.04C99.9286 33.04 100.569 32.7627 101.027 32.208C101.497 31.6427 101.731 30.8747 101.731 29.904C101.731 28.9547 101.497 28.2027 101.027 27.648C100.558 27.0933 99.9179 26.816 99.1073 26.816C98.2966 26.816 97.6619 27.0933 97.2033 27.648C96.7446 28.2027 96.5153 28.9707 96.5153 29.952C96.5153 30.912 96.7446 31.6693 97.2033 32.224C97.6619 32.768 98.2966 33.04 99.1073 33.04ZM108.858 34.16C108.08 34.16 107.392 33.9787 106.794 33.616C106.197 33.2427 105.728 32.736 105.386 32.096C105.045 31.456 104.874 30.72 104.874 29.888C104.874 29.056 105.04 28.3253 105.37 27.696C105.712 27.056 106.186 26.56 106.794 26.208C107.402 25.856 108.101 25.68 108.89 25.68C109.648 25.68 110.304 25.8453 110.858 26.176C111.424 26.5067 111.856 26.9707 112.154 27.568C112.464 28.1653 112.618 28.8693 112.618 29.68C112.618 29.7867 112.613 29.888 112.602 29.984C112.602 30.08 112.592 30.1867 112.57 30.304H105.834V29.232H111.786L111.37 29.824C111.37 28.8427 111.152 28.0907 110.714 27.568C110.288 27.0347 109.68 26.768 108.89 26.768C108.08 26.768 107.424 27.0507 106.922 27.616C106.432 28.1707 106.186 28.9227 106.186 29.872C106.186 30.8427 106.432 31.6213 106.922 32.208C107.424 32.784 108.09 33.072 108.922 33.072C109.445 33.072 109.904 32.96 110.298 32.736C110.693 32.5013 110.981 32.1707 111.162 31.744H112.378C112.112 32.4907 111.664 33.0827 111.034 33.52C110.416 33.9467 109.69 34.16 108.858 34.16ZM119.459 34.16C118.67 34.16 117.939 34.016 117.267 33.728C116.606 33.4293 116.03 33.0187 115.539 32.496C115.048 31.9627 114.67 31.3387 114.403 30.624C114.136 29.8987 114.003 29.104 114.003 28.24C114.003 27.376 114.136 26.5867 114.403 25.872C114.67 25.1467 115.043 24.5227 115.523 24C116.014 23.4667 116.59 23.056 117.251 22.768C117.923 22.4693 118.654 22.32 119.443 22.32C120.307 22.32 121.08 22.496 121.763 22.848C122.456 23.2 123.022 23.696 123.459 24.336C123.907 24.976 124.184 25.7227 124.291 26.576H122.979C122.851 25.6267 122.472 24.88 121.843 24.336C121.224 23.7813 120.43 23.504 119.459 23.504C118.638 23.504 117.918 23.7067 117.299 24.112C116.68 24.5067 116.2 25.0613 115.859 25.776C115.518 26.48 115.347 27.3013 115.347 28.24C115.347 29.1787 115.518 30.0053 115.859 30.72C116.2 31.424 116.68 31.9787 117.299 32.384C117.918 32.7787 118.632 32.976 119.443 32.976C120.435 32.976 121.246 32.6987 121.875 32.144C122.515 31.5893 122.894 30.8427 123.011 29.904H124.323C124.216 30.7573 123.939 31.504 123.491 32.144C123.054 32.784 122.488 33.28 121.795 33.632C121.112 33.984 120.334 34.16 119.459 34.16ZM131.132 34C131.089 33.8187 131.057 33.6107 131.036 33.376C131.025 33.1413 131.02 32.8427 131.02 32.48H130.94V28.576C130.94 27.9573 130.796 27.504 130.508 27.216C130.23 26.9173 129.777 26.768 129.148 26.768C128.529 26.768 128.033 26.896 127.66 27.152C127.297 27.3973 127.094 27.7493 127.052 28.208H125.82C125.873 27.4187 126.204 26.8 126.812 26.352C127.42 25.904 128.214 25.68 129.196 25.68C130.209 25.68 130.961 25.92 131.452 26.4C131.942 26.88 132.188 27.6 132.188 28.56V32.48C132.188 32.7147 132.204 32.96 132.236 33.216C132.268 33.4613 132.31 33.7227 132.364 34H131.132ZM128.332 34.16C127.489 34.16 126.817 33.9573 126.316 33.552C125.825 33.136 125.58 32.5707 125.58 31.856C125.58 31.1413 125.825 30.5867 126.316 30.192C126.806 29.7973 127.521 29.52 128.46 29.36L131.308 28.88V29.936L128.652 30.352C128.054 30.448 127.601 30.608 127.292 30.832C126.982 31.056 126.828 31.3813 126.828 31.808C126.828 32.224 126.966 32.5387 127.244 32.752C127.532 32.9653 127.953 33.072 128.508 33.072C129.222 33.072 129.804 32.912 130.252 32.592C130.71 32.2613 130.94 31.8347 130.94 31.312L131.148 32.448C130.977 32.992 130.641 33.4133 130.14 33.712C129.649 34.0107 129.046 34.16 128.332 34.16ZM134.655 34V25.84H135.855V27.76H135.935V34H134.655ZM140.159 34V28.592C140.159 27.9733 140.02 27.52 139.743 27.232C139.466 26.944 139.066 26.8 138.543 26.8C138.052 26.8 137.61 26.9173 137.215 27.152C136.82 27.3867 136.506 27.712 136.271 28.128C136.047 28.544 135.935 29.0293 135.935 29.584L135.727 27.648C136.004 27.04 136.42 26.56 136.975 26.208C137.53 25.856 138.132 25.68 138.783 25.68C139.572 25.68 140.212 25.9147 140.703 26.384C141.194 26.8427 141.439 27.4667 141.439 28.256V34H140.159ZM145.663 34V28.592C145.663 27.9733 145.524 27.52 145.247 27.232C144.97 26.944 144.57 26.8 144.047 26.8C143.556 26.8 143.114 26.9173 142.719 27.152C142.324 27.3867 142.01 27.712 141.775 28.128C141.551 28.544 141.439 29.0293 141.439 29.584L141.119 27.648C141.396 27.04 141.823 26.56 142.399 26.208C142.975 25.856 143.594 25.68 144.255 25.68C145.044 25.68 145.69 25.9147 146.191 26.384C146.692 26.8427 146.943 27.4667 146.943 28.256V34H145.663ZM153.437 34.144C152.669 34.144 152.024 33.9573 151.501 33.584C150.978 33.2107 150.621 32.6827 150.429 32L150.685 31.968V37.28H149.405V25.84H150.605V27.744L150.429 27.696C150.632 27.0667 151.016 26.576 151.581 26.224C152.146 25.8613 152.802 25.68 153.549 25.68C154.274 25.68 154.904 25.856 155.437 26.208C155.981 26.56 156.402 27.0507 156.701 27.68C157 28.3093 157.149 29.0453 157.149 29.888C157.149 30.7413 156.994 31.488 156.685 32.128C156.376 32.768 155.944 33.264 155.389 33.616C154.834 33.968 154.184 34.144 153.437 34.144ZM153.245 33.024C154.056 33.024 154.69 32.7467 155.149 32.192C155.608 31.6267 155.837 30.8587 155.837 29.888C155.837 28.928 155.608 28.176 155.149 27.632C154.69 27.0773 154.056 26.8 153.245 26.8C152.434 26.8 151.794 27.0827 151.325 27.648C150.856 28.2027 150.621 28.9653 150.621 29.936C150.621 30.8853 150.856 31.6373 151.325 32.192C151.794 32.7467 152.434 33.024 153.245 33.024Z" fill="white"/>
<path d="M207.667 27.3335V28.6669H215.667L212 32.3335L212.947 33.2802L218.227 28.0002L212.947 22.7202L212 23.6669L215.667 27.3335H207.667Z" fill="white"/>
</svg>
