<svg width="237" height="56" viewBox="0 0 237 56" fill="none" xmlns="http://www.w3.org/2000/svg">
<rect x="0.5" y="0.5" width="236" height="55" rx="7.5" fill="white"/>
<rect x="0.5" y="0.5" width="236" height="55" rx="7.5" stroke="#D9D9D9"/>
<path d="M37.6905 28.4854C37.5943 28.4854 37.4992 28.4653 37.4112 28.4262L31.5545 25.8035C31.4344 25.7495 31.3325 25.662 31.2609 25.5515C31.1894 25.4409 31.1514 25.312 31.1514 25.1804C31.1514 25.0487 31.1894 24.9198 31.2609 24.8093C31.3325 24.6987 31.4344 24.6112 31.5545 24.5572L37.4112 21.9436C37.5766 21.8702 37.7642 21.8653 37.9332 21.9299C38.1021 21.9945 38.2386 22.1234 38.3128 22.2884C38.3861 22.4538 38.3909 22.6416 38.3261 22.8105C38.2613 22.9795 38.1322 23.1159 37.9671 23.1899L33.5049 25.1813L37.968 27.1799C38.1107 27.2436 38.2273 27.3542 38.2982 27.4935C38.3691 27.6327 38.39 27.7921 38.3575 27.9449C38.325 28.0978 38.2411 28.2348 38.1197 28.3332C37.9983 28.4316 37.8468 28.4853 37.6905 28.4854Z" fill="#67BECE"/>
<path d="M29.7087 38C23.2697 38 17.6404 33.6534 16.022 27.4292C15.9764 27.2541 16.0022 27.0681 16.0938 26.9121C16.1853 26.7561 16.335 26.6428 16.5101 26.5972C16.6851 26.5516 16.8711 26.5774 17.0271 26.669C17.1832 26.7605 17.2964 26.9102 17.342 27.0853C18.056 29.8212 19.6573 32.243 21.8952 33.9712C24.1331 35.6995 26.8811 36.6365 29.7087 36.6355C29.8896 36.6355 30.0632 36.7074 30.1911 36.8353C30.3191 36.9633 30.391 37.1368 30.391 37.3178C30.391 37.4987 30.3191 37.6723 30.1911 37.8002C30.0632 37.9282 29.8896 38 29.7087 38Z" fill="#3F54A3"/>
<path d="M27.3581 32.3344C27.1771 32.3344 27.0036 32.2625 26.8756 32.1345C26.7477 32.0066 26.6758 31.833 26.6758 31.6521V18.6823C26.6758 18.5013 26.7477 18.3278 26.8756 18.1998C27.0036 18.0719 27.1771 18 27.3581 18C27.539 18 27.7126 18.0719 27.8405 18.1998C27.9685 18.3278 28.0404 18.5013 28.0404 18.6823V31.6521C28.0404 31.833 27.9685 32.0066 27.8405 32.1345C27.7126 32.2625 27.539 32.3344 27.3581 32.3344Z" fill="#67BECE"/>
<path d="M47.7481 34V22.48H49.0601V34H47.7481ZM48.4201 29.056V27.904H54.6281V29.056H48.4201ZM48.4201 23.632V22.48H55.0761V23.632H48.4201ZM57.2771 34V25.84H58.4771V27.92H58.5571V34H57.2771ZM58.5571 29.744L58.3491 27.808C58.5411 27.1147 58.8824 26.5867 59.3731 26.224C59.8637 25.8613 60.4291 25.68 61.0691 25.68C61.3357 25.68 61.5171 25.7013 61.6131 25.744V26.976C61.5597 26.9547 61.4851 26.944 61.3891 26.944C61.2931 26.9333 61.1757 26.928 61.0371 26.928C60.2264 26.928 59.6077 27.1733 59.1811 27.664C58.7651 28.144 58.5571 28.8373 58.5571 29.744ZM66.6691 34.16C65.8691 34.16 65.1651 33.9733 64.5571 33.6C63.9491 33.2267 63.4744 32.72 63.1331 32.08C62.8024 31.4293 62.6371 30.6987 62.6371 29.888C62.6371 29.0667 62.8077 28.3413 63.1491 27.712C63.4904 27.0827 63.9597 26.5867 64.5571 26.224C65.1651 25.8613 65.8691 25.68 66.6691 25.68C67.4797 25.68 68.1837 25.8613 68.7811 26.224C69.3891 26.5867 69.8584 27.0827 70.1891 27.712C70.5304 28.3413 70.7011 29.0667 70.7011 29.888C70.7011 30.6987 70.5304 31.4293 70.1891 32.08C69.8584 32.72 69.3891 33.2267 68.7811 33.6C68.1837 33.9733 67.4797 34.16 66.6691 34.16ZM66.6691 33.072C67.2237 33.072 67.7037 32.9387 68.1091 32.672C68.5144 32.3947 68.8291 32.016 69.0531 31.536C69.2771 31.056 69.3891 30.5013 69.3891 29.872C69.3891 28.9333 69.1384 28.1813 68.6371 27.616C68.1464 27.0507 67.4904 26.768 66.6691 26.768C65.8584 26.768 65.2024 27.0507 64.7011 27.616C64.1997 28.1813 63.9491 28.9333 63.9491 29.872C63.9491 30.5013 64.0611 31.056 64.2851 31.536C64.5091 32.016 64.8237 32.3947 65.2291 32.672C65.6451 32.9387 66.1251 33.072 66.6691 33.072ZM72.6208 34V25.84H73.8208V27.76H73.9008V34H72.6208ZM78.4608 34V28.656C78.4608 28.0373 78.3062 27.5733 77.9968 27.264C77.6875 26.9547 77.2288 26.8 76.6208 26.8C76.0875 26.8 75.6128 26.9173 75.1968 27.152C74.7915 27.3867 74.4715 27.712 74.2368 28.128C74.0128 28.544 73.9008 29.0293 73.9008 29.584L73.6928 27.648C73.9702 27.04 74.3915 26.56 74.9568 26.208C75.5328 25.856 76.1835 25.68 76.9088 25.68C77.7622 25.68 78.4448 25.9253 78.9568 26.416C79.4795 26.896 79.7408 27.5307 79.7408 28.32V34H78.4608ZM85.2442 34.144C84.3375 34.144 83.6762 33.9413 83.2602 33.536C82.8549 33.12 82.6522 32.5227 82.6522 31.744V23.936L83.9322 23.456V31.728C83.9322 32.1867 84.0495 32.5227 84.2842 32.736C84.5189 32.9493 84.9029 33.056 85.4362 33.056C85.6495 33.056 85.8309 33.0453 85.9802 33.024C86.1402 32.992 86.2682 32.9547 86.3642 32.912V34C86.2575 34.0427 86.1029 34.0747 85.9002 34.096C85.7082 34.128 85.4895 34.144 85.2442 34.144ZM80.9722 26.928V25.84H86.3642V26.928H80.9722ZM91.1836 34.16C90.4049 34.16 89.7169 33.9787 89.1196 33.616C88.5222 33.2427 88.0529 32.736 87.7116 32.096C87.3702 31.456 87.1996 30.72 87.1996 29.888C87.1996 29.056 87.3649 28.3253 87.6956 27.696C88.0369 27.056 88.5116 26.56 89.1196 26.208C89.7276 25.856 90.4262 25.68 91.2156 25.68C91.9729 25.68 92.6289 25.8453 93.1836 26.176C93.7489 26.5067 94.1809 26.9707 94.4796 27.568C94.7889 28.1653 94.9436 28.8693 94.9436 29.68C94.9436 29.7867 94.9382 29.888 94.9276 29.984C94.9276 30.08 94.9169 30.1867 94.8956 30.304H88.1596V29.232H94.1116L93.6956 29.824C93.6956 28.8427 93.4769 28.0907 93.0396 27.568C92.6129 27.0347 92.0049 26.768 91.2156 26.768C90.4049 26.768 89.7489 27.0507 89.2476 27.616C88.7569 28.1707 88.5116 28.9227 88.5116 29.872C88.5116 30.8427 88.7569 31.6213 89.2476 32.208C89.7489 32.784 90.4156 33.072 91.2476 33.072C91.7702 33.072 92.2289 32.96 92.6236 32.736C93.0182 32.5013 93.3062 32.1707 93.4876 31.744H94.7036C94.4369 32.4907 93.9889 33.0827 93.3596 33.52C92.7409 33.9467 92.0156 34.16 91.1836 34.16ZM96.8708 34V25.84H98.0708V27.76H98.1508V34H96.8708ZM102.711 34V28.656C102.711 28.0373 102.556 27.5733 102.247 27.264C101.937 26.9547 101.479 26.8 100.871 26.8C100.337 26.8 99.8628 26.9173 99.4468 27.152C99.0415 27.3867 98.7215 27.712 98.4868 28.128C98.2628 28.544 98.1508 29.0293 98.1508 29.584L97.9428 27.648C98.2202 27.04 98.6415 26.56 99.2068 26.208C99.7828 25.856 100.433 25.68 101.159 25.68C102.012 25.68 102.695 25.9253 103.207 26.416C103.729 26.896 103.991 27.5307 103.991 28.32V34H102.711ZM112.385 34V32.096L112.545 32.144C112.342 32.7627 111.969 33.2533 111.425 33.616C110.892 33.9787 110.252 34.16 109.505 34.16C108.769 34.16 108.124 33.984 107.569 33.632C107.025 33.28 106.598 32.7893 106.289 32.16C105.99 31.5307 105.841 30.7947 105.841 29.952C105.841 29.0987 105.996 28.352 106.305 27.712C106.614 27.072 107.046 26.576 107.601 26.224C108.156 25.872 108.806 25.696 109.553 25.696C110.321 25.696 110.966 25.8827 111.489 26.256C112.012 26.6293 112.369 27.1573 112.561 27.84L112.305 27.872V22.48H113.585V34H112.385ZM109.745 33.04C110.566 33.04 111.206 32.7627 111.665 32.208C112.134 31.6427 112.369 30.8747 112.369 29.904C112.369 28.9547 112.134 28.2027 111.665 27.648C111.196 27.0933 110.556 26.816 109.745 26.816C108.934 26.816 108.3 27.0933 107.841 27.648C107.382 28.2027 107.153 28.9707 107.153 29.952C107.153 30.912 107.382 31.6693 107.841 32.224C108.3 32.768 108.934 33.04 109.745 33.04ZM119.451 34V22.48H121.467L125.627 33.584H125.019L129.147 22.48H131.195V34H129.899V23.168H130.075L126.059 34H124.491L120.475 23.264H120.651V34H119.451ZM137.199 34.16C136.421 34.16 135.733 33.9787 135.135 33.616C134.538 33.2427 134.069 32.736 133.727 32.096C133.386 31.456 133.215 30.72 133.215 29.888C133.215 29.056 133.381 28.3253 133.711 27.696C134.053 27.056 134.527 26.56 135.135 26.208C135.743 25.856 136.442 25.68 137.231 25.68C137.989 25.68 138.645 25.8453 139.199 26.176C139.765 26.5067 140.197 26.9707 140.495 27.568C140.805 28.1653 140.959 28.8693 140.959 29.68C140.959 29.7867 140.954 29.888 140.943 29.984C140.943 30.08 140.933 30.1867 140.911 30.304H134.175V29.232H140.127L139.711 29.824C139.711 28.8427 139.493 28.0907 139.055 27.568C138.629 27.0347 138.021 26.768 137.231 26.768C136.421 26.768 135.765 27.0507 135.263 27.616C134.773 28.1707 134.527 28.9227 134.527 29.872C134.527 30.8427 134.773 31.6213 135.263 32.208C135.765 32.784 136.431 33.072 137.263 33.072C137.786 33.072 138.245 32.96 138.639 32.736C139.034 32.5013 139.322 32.1707 139.503 31.744H140.719C140.453 32.4907 140.005 33.0827 139.375 33.52C138.757 33.9467 138.031 34.16 137.199 34.16ZM142.886 34V25.84H144.086V27.76H144.166V34H142.886ZM148.726 34V28.656C148.726 28.0373 148.572 27.5733 148.262 27.264C147.953 26.9547 147.494 26.8 146.886 26.8C146.353 26.8 145.878 26.9173 145.462 27.152C145.057 27.3867 144.737 27.712 144.502 28.128C144.278 28.544 144.166 29.0293 144.166 29.584L143.958 27.648C144.236 27.04 144.657 26.56 145.222 26.208C145.798 25.856 146.449 25.68 147.174 25.68C148.028 25.68 148.71 25.9253 149.222 26.416C149.745 26.896 150.006 27.5307 150.006 28.32V34H148.726ZM155.51 34.144C154.603 34.144 153.942 33.9413 153.526 33.536C153.12 33.12 152.918 32.5227 152.918 31.744V23.936L154.198 23.456V31.728C154.198 32.1867 154.315 32.5227 154.55 32.736C154.784 32.9493 155.168 33.056 155.702 33.056C155.915 33.056 156.096 33.0453 156.246 33.024C156.406 32.992 156.534 32.9547 156.63 32.912V34C156.523 34.0427 156.368 34.0747 156.166 34.096C155.974 34.128 155.755 34.144 155.51 34.144ZM151.238 26.928V25.84H156.63V26.928H151.238ZM161.482 34.16C160.682 34.16 159.978 33.9733 159.37 33.6C158.762 33.2267 158.287 32.72 157.946 32.08C157.615 31.4293 157.45 30.6987 157.45 29.888C157.45 29.0667 157.62 28.3413 157.962 27.712C158.303 27.0827 158.772 26.5867 159.37 26.224C159.978 25.8613 160.682 25.68 161.482 25.68C162.292 25.68 162.996 25.8613 163.594 26.224C164.202 26.5867 164.671 27.0827 165.002 27.712C165.343 28.3413 165.514 29.0667 165.514 29.888C165.514 30.6987 165.343 31.4293 165.002 32.08C164.671 32.72 164.202 33.2267 163.594 33.6C162.996 33.9733 162.292 34.16 161.482 34.16ZM161.482 33.072C162.036 33.072 162.516 32.9387 162.922 32.672C163.327 32.3947 163.642 32.016 163.866 31.536C164.09 31.056 164.202 30.5013 164.202 29.872C164.202 28.9333 163.951 28.1813 163.45 27.616C162.959 27.0507 162.303 26.768 161.482 26.768C160.671 26.768 160.015 27.0507 159.514 27.616C159.012 28.1813 158.762 28.9333 158.762 29.872C158.762 30.5013 158.874 31.056 159.098 31.536C159.322 32.016 159.636 32.3947 160.042 32.672C160.458 32.9387 160.938 33.072 161.482 33.072ZM167.433 34V25.84H168.633V27.92H168.713V34H167.433ZM168.713 29.744L168.505 27.808C168.697 27.1147 169.039 26.5867 169.529 26.224C170.02 25.8613 170.585 25.68 171.225 25.68C171.492 25.68 171.673 25.7013 171.769 25.744V26.976C171.716 26.9547 171.641 26.944 171.545 26.944C171.449 26.9333 171.332 26.928 171.193 26.928C170.383 26.928 169.764 27.1733 169.337 27.664C168.921 28.144 168.713 28.8373 168.713 29.744Z" fill="#333333"/>
<path d="M207.667 27.3335V28.6669H215.667L212 32.3335L212.947 33.2802L218.227 28.0002L212.947 22.7202L212 23.6669L215.667 27.3335H207.667Z" fill="#737373"/>
</svg>
