<svg width="237" height="56" viewBox="0 0 237 56" fill="none" xmlns="http://www.w3.org/2000/svg">
<rect width="237" height="56" rx="8" fill="#1A1A1A"/>
<path d="M28.4775 20.8601C26.8477 20.4814 25.1527 20.4814 23.5229 20.8601C22.5815 20.2828 21.8629 20.0175 21.3402 19.9055C21.1171 19.8551 20.8889 19.8314 20.6602 19.8348C20.5562 19.8376 20.4526 19.8501 20.3509 19.8721L20.3375 19.8748L20.3322 19.8775H20.3282L20.5109 20.5188L20.3282 19.8788C20.2345 19.9053 20.1478 19.9519 20.0741 20.0155C20.0004 20.0791 19.9415 20.158 19.9015 20.2468C19.5082 21.1277 19.4332 22.118 19.6895 23.0481C19.0257 23.8526 18.664 24.8638 18.6669 25.9068C18.6669 27.9775 19.2775 29.3695 20.3189 30.2641C21.0482 30.8908 21.9335 31.2241 22.8215 31.4148C22.6818 31.8252 22.6291 32.2602 22.6669 32.6921V33.4895C22.1242 33.6028 21.7482 33.5668 21.4802 33.4788C21.1455 33.3681 20.8882 33.1455 20.6415 32.8255C20.5126 32.653 20.3924 32.4741 20.2815 32.2895L20.2055 32.1655C20.1096 32.0059 20.01 31.8485 19.9069 31.6935C19.6535 31.3188 19.2775 30.8495 18.6695 30.6895L18.0242 30.5201L17.6855 31.8108L18.3309 31.9801C18.4375 32.0068 18.5762 32.1068 18.8042 32.4415C18.892 32.5736 18.9764 32.7078 19.0575 32.8441L19.1482 32.9908C19.2735 33.1935 19.4175 33.4175 19.5842 33.6361C19.9215 34.0761 20.3815 34.5201 21.0642 34.7455C21.5309 34.9001 22.0615 34.9375 22.6669 34.8441V37.3335C22.6669 37.5103 22.7371 37.6798 22.8621 37.8049C22.9872 37.9299 23.1567 38.0001 23.3335 38.0001H28.6669C28.8437 38.0001 29.0133 37.9299 29.1383 37.8049C29.2633 37.6798 29.3335 37.5103 29.3335 37.3335V32.5828C29.3335 32.1628 29.3149 31.7775 29.1962 31.4188C30.0802 31.2321 30.9589 30.8988 31.6842 30.2721C32.7242 29.3708 33.3335 27.9655 33.3335 25.8828V25.8815C33.3302 24.847 32.9683 23.8457 32.3095 23.0481C32.5655 22.1184 32.4906 21.1287 32.0975 20.2481C32.0579 20.1593 31.9993 20.0801 31.9258 20.0163C31.8523 19.9525 31.7658 19.9056 31.6722 19.8788L31.4895 20.5188C31.6722 19.8788 31.6709 19.8788 31.6695 19.8788L31.6669 19.8775L31.6615 19.8748L31.6495 19.8721C31.6166 19.8636 31.5832 19.8569 31.5495 19.8521C31.4798 19.8419 31.4094 19.8361 31.3389 19.8348C31.1102 19.8314 30.882 19.8551 30.6589 19.9055C30.1375 20.0175 29.4189 20.2828 28.4775 20.8601Z" fill="white"/>
<path d="M50.56 34.16C49.3867 34.16 48.368 33.92 47.504 33.44C46.64 32.96 45.9733 32.288 45.504 31.424C45.0347 30.5493 44.8 29.52 44.8 28.336C44.8 27.152 45.0293 26.112 45.488 25.216C45.9573 24.3093 46.6027 23.6 47.424 23.088C48.256 22.576 49.2107 22.32 50.288 22.32C51.1307 22.32 51.8933 22.48 52.576 22.8C53.2693 23.12 53.8347 23.5627 54.272 24.128C54.72 24.6933 54.992 25.3493 55.088 26.096H53.776C53.6693 25.3067 53.3013 24.6773 52.672 24.208C52.0533 23.7387 51.2747 23.504 50.336 23.504C49.4933 23.504 48.7573 23.7067 48.128 24.112C47.4987 24.5067 47.008 25.0613 46.656 25.776C46.3147 26.4907 46.144 27.3333 46.144 28.304C46.144 29.2747 46.32 30.112 46.672 30.816C47.0347 31.5093 47.552 32.0427 48.224 32.416C48.9067 32.7893 49.7227 32.976 50.672 32.976C51.3227 32.976 51.904 32.8853 52.416 32.704C52.928 32.512 53.392 32.2187 53.808 31.824L55.12 32.304C54.5333 32.9227 53.856 33.3867 53.088 33.696C52.3307 34.0053 51.488 34.16 50.56 34.16ZM53.808 32.304V28.576L54.304 29.072H50.656V27.92H55.12V32.304H53.808ZM57.5456 34V25.84H58.8256V34H57.5456ZM57.4496 23.984V22.48H58.9216V23.984H57.4496ZM64.6221 34.144C63.7155 34.144 63.0541 33.9413 62.6381 33.536C62.2328 33.12 62.0301 32.5227 62.0301 31.744V23.936L63.3101 23.456V31.728C63.3101 32.1867 63.4275 32.5227 63.6621 32.736C63.8968 32.9493 64.2808 33.056 64.8141 33.056C65.0275 33.056 65.2088 33.0453 65.3581 33.024C65.5181 32.992 65.6461 32.9547 65.7421 32.912V34C65.6355 34.0427 65.4808 34.0747 65.2781 34.096C65.0861 34.128 64.8675 34.144 64.6221 34.144ZM60.3501 26.928V25.84H65.7421V26.928H60.3501ZM67.4854 34V22.48H68.7974V34H67.4854ZM75.1974 34V22.48H76.5094V34H75.1974ZM68.1574 27.424H75.7734V28.576H68.1574V27.424ZM81.8266 34.16C81.2933 34.16 80.8186 34.0533 80.4026 33.84C79.9866 33.616 79.6613 33.3067 79.4266 32.912C79.192 32.5067 79.0746 32.0427 79.0746 31.52V25.84H80.3546V31.184C80.3546 31.8027 80.504 32.2667 80.8026 32.576C81.112 32.8853 81.5493 33.04 82.1146 33.04C82.6266 33.04 83.08 32.9227 83.4746 32.688C83.8693 32.4533 84.1786 32.128 84.4026 31.712C84.6373 31.2853 84.7546 30.8 84.7546 30.256L84.9626 32.192C84.696 32.8 84.28 33.28 83.7146 33.632C83.1493 33.984 82.52 34.16 81.8266 34.16ZM84.8346 34V32.08H84.7546V25.84H86.0346V34H84.8346ZM92.6245 34.144C91.8565 34.144 91.2112 33.9573 90.6885 33.584C90.1658 33.2107 89.8085 32.6827 89.6165 32L89.7925 31.968V34H88.5925V22.48H89.8725V27.744L89.6965 27.696C89.8992 27.0667 90.2672 26.576 90.8005 26.224C91.3445 25.8613 91.9898 25.68 92.7365 25.68C93.4618 25.68 94.0912 25.856 94.6245 26.208C95.1685 26.56 95.5898 27.0507 95.8885 27.68C96.1872 28.3093 96.3365 29.0453 96.3365 29.888C96.3365 30.7413 96.1818 31.488 95.8725 32.128C95.5632 32.768 95.1312 33.264 94.5765 33.616C94.0218 33.968 93.3712 34.144 92.6245 34.144ZM92.4325 33.024C93.2432 33.024 93.8778 32.7467 94.3365 32.192C94.7952 31.6267 95.0245 30.8587 95.0245 29.888C95.0245 28.928 94.7952 28.176 94.3365 27.632C93.8778 27.0773 93.2432 26.8 92.4325 26.8C91.6218 26.8 90.9818 27.0827 90.5125 27.648C90.0432 28.2027 89.8085 28.9653 89.8085 29.936C89.8085 30.8853 90.0432 31.6373 90.5125 32.192C90.9818 32.7467 91.6218 33.024 92.4325 33.024Z" fill="white"/>
<path d="M207.667 27.3335V28.6669H215.667L212 32.3335L212.947 33.2802L218.227 28.0002L212.947 22.7202L212 23.6669L215.667 27.3335H207.667Z" fill="white"/>
</svg>
