<svg width="237" height="56" viewBox="0 0 237 56" fill="none" xmlns="http://www.w3.org/2000/svg">
<rect width="237" height="56" rx="8" fill="#EB4925"/>
<path d="M34.0529 26.3227L34.0295 26.2627L31.7637 20.351C31.7179 20.2344 31.6362 20.1353 31.5305 20.068C31.4248 20.0008 31.3004 19.9688 31.1754 19.9768C31.0502 19.9824 30.93 20.0275 30.8321 20.1057C30.7342 20.1838 30.6635 20.291 30.6304 20.4118L29.1004 25.1002H22.902L21.3695 20.4127C21.3367 20.2918 21.2665 20.1844 21.1689 20.106C21.0713 20.0275 20.9513 19.982 20.8262 19.976C20.7011 19.9692 20.5771 20.0017 20.4714 20.0689C20.3658 20.1362 20.2838 20.2348 20.237 20.351L17.9687 26.271L17.9454 26.3293C17.6197 27.1819 17.5796 28.1172 17.8312 28.9945C18.0828 29.8719 18.6124 30.6438 19.3404 31.1943L19.3487 31.2002L19.3687 31.216L22.8245 33.8027L24.5329 35.0968L25.572 35.8835C25.694 35.9756 25.8426 36.0254 25.9954 36.0254C26.1481 36.0254 26.2968 35.9756 26.4187 35.8835L27.4579 35.0968L29.1662 33.8027L32.6429 31.2002L32.6512 31.1935C33.3818 30.6437 33.9137 29.8711 34.1665 28.9925C34.4194 28.1138 34.3795 27.1767 34.0529 26.3227Z" fill="white"/>
<path d="M50.56 34.16C49.3867 34.16 48.368 33.92 47.504 33.44C46.64 32.96 45.9733 32.288 45.504 31.424C45.0347 30.5493 44.8 29.52 44.8 28.336C44.8 27.152 45.0293 26.112 45.488 25.216C45.9573 24.3093 46.6027 23.6 47.424 23.088C48.256 22.576 49.2107 22.32 50.288 22.32C51.1307 22.32 51.8933 22.48 52.576 22.8C53.2693 23.12 53.8347 23.5627 54.272 24.128C54.72 24.6933 54.992 25.3493 55.088 26.096H53.776C53.6693 25.3067 53.3013 24.6773 52.672 24.208C52.0533 23.7387 51.2747 23.504 50.336 23.504C49.4933 23.504 48.7573 23.7067 48.128 24.112C47.4987 24.5067 47.008 25.0613 46.656 25.776C46.3147 26.4907 46.144 27.3333 46.144 28.304C46.144 29.2747 46.32 30.112 46.672 30.816C47.0347 31.5093 47.552 32.0427 48.224 32.416C48.9067 32.7893 49.7227 32.976 50.672 32.976C51.3227 32.976 51.904 32.8853 52.416 32.704C52.928 32.512 53.392 32.2187 53.808 31.824L55.12 32.304C54.5333 32.9227 53.856 33.3867 53.088 33.696C52.3307 34.0053 51.488 34.16 50.56 34.16ZM53.808 32.304V28.576L54.304 29.072H50.656V27.92H55.12V32.304H53.808ZM57.5456 34V25.84H58.8256V34H57.5456ZM57.4496 23.984V22.48H58.9216V23.984H57.4496ZM64.6221 34.144C63.7155 34.144 63.0541 33.9413 62.6381 33.536C62.2328 33.12 62.0301 32.5227 62.0301 31.744V23.936L63.3101 23.456V31.728C63.3101 32.1867 63.4275 32.5227 63.6621 32.736C63.8968 32.9493 64.2808 33.056 64.8141 33.056C65.0275 33.056 65.2088 33.0453 65.3581 33.024C65.5181 32.992 65.6461 32.9547 65.7421 32.912V34C65.6355 34.0427 65.4808 34.0747 65.2781 34.096C65.0861 34.128 64.8675 34.144 64.6221 34.144ZM60.3501 26.928V25.84H65.7421V26.928H60.3501ZM67.4854 34V22.48H68.7974V34H67.4854ZM68.1574 34V32.848H74.7174V34H68.1574ZM81.3974 34C81.3547 33.8187 81.3227 33.6107 81.3014 33.376C81.2907 33.1413 81.2854 32.8427 81.2854 32.48H81.2054V28.576C81.2054 27.9573 81.0614 27.504 80.7734 27.216C80.496 26.9173 80.0427 26.768 79.4134 26.768C78.7947 26.768 78.2987 26.896 77.9254 27.152C77.5627 27.3973 77.36 27.7493 77.3174 28.208H76.0854C76.1387 27.4187 76.4694 26.8 77.0774 26.352C77.6854 25.904 78.48 25.68 79.4614 25.68C80.4747 25.68 81.2267 25.92 81.7174 26.4C82.208 26.88 82.4534 27.6 82.4534 28.56V32.48C82.4534 32.7147 82.4694 32.96 82.5014 33.216C82.5334 33.4613 82.576 33.7227 82.6294 34H81.3974ZM78.5974 34.16C77.7547 34.16 77.0827 33.9573 76.5814 33.552C76.0907 33.136 75.8454 32.5707 75.8454 31.856C75.8454 31.1413 76.0907 30.5867 76.5814 30.192C77.072 29.7973 77.7867 29.52 78.7254 29.36L81.5734 28.88V29.936L78.9174 30.352C78.32 30.448 77.8667 30.608 77.5574 30.832C77.248 31.056 77.0934 31.3813 77.0934 31.808C77.0934 32.224 77.232 32.5387 77.5094 32.752C77.7974 32.9653 78.2187 33.072 78.7734 33.072C79.488 33.072 80.0694 32.912 80.5174 32.592C80.976 32.2613 81.2054 31.8347 81.2054 31.312L81.4134 32.448C81.2427 32.992 80.9067 33.4133 80.4054 33.712C79.9147 34.0107 79.312 34.16 78.5974 34.16ZM88.9526 34.144C88.1846 34.144 87.5393 33.9573 87.0166 33.584C86.494 33.2107 86.1366 32.6827 85.9446 32L86.1206 31.968V34H84.9206V22.48H86.2006V27.744L86.0246 27.696C86.2273 27.0667 86.5953 26.576 87.1286 26.224C87.6726 25.8613 88.318 25.68 89.0646 25.68C89.79 25.68 90.4193 25.856 90.9526 26.208C91.4966 26.56 91.918 27.0507 92.2166 27.68C92.5153 28.3093 92.6646 29.0453 92.6646 29.888C92.6646 30.7413 92.51 31.488 92.2006 32.128C91.8913 32.768 91.4593 33.264 90.9046 33.616C90.35 33.968 89.6993 34.144 88.9526 34.144ZM88.7606 33.024C89.5713 33.024 90.206 32.7467 90.6646 32.192C91.1233 31.6267 91.3526 30.8587 91.3526 29.888C91.3526 28.928 91.1233 28.176 90.6646 27.632C90.206 27.0773 89.5713 26.8 88.7606 26.8C87.95 26.8 87.31 27.0827 86.8406 27.648C86.3713 28.2027 86.1366 28.9653 86.1366 29.936C86.1366 30.8853 86.3713 31.6373 86.8406 32.192C87.31 32.7467 87.95 33.024 88.7606 33.024Z" fill="white"/>
<path d="M207.667 27.3335V28.6669H215.667L212 32.3335L212.947 33.2802L218.227 28.0002L212.947 22.7202L212 23.6669L215.667 27.3335H207.667Z" fill="white"/>
</svg>
