<svg width="237" height="56" viewBox="0 0 237 56" fill="none" xmlns="http://www.w3.org/2000/svg">
<rect width="237" height="56" rx="8" fill="#0330D1"/>
<g clip-path="url(#clip0_86_26596)">
<path d="M17.3743 24.6838C15.5419 26.4807 15.5419 29.4846 17.3743 31.3166L22.6833 36.6252C24.4802 38.4572 27.4841 38.4572 29.3161 36.6252L34.6247 31.3166C36.4567 29.4846 36.4567 26.4807 34.6247 24.6838L29.3161 19.3748C27.4841 17.5424 24.4802 17.5424 22.6833 19.3748L17.3743 24.6838ZM28.3239 30.3244C27.0388 31.6057 24.9606 31.6057 23.6794 30.3244C22.3942 29.0393 22.3942 26.9611 23.6794 25.6799C24.9606 24.3947 27.0388 24.3947 28.3239 25.6799C29.6052 26.9611 29.6052 29.0393 28.3239 30.3244Z" fill="white"/>
</g>
<path d="M45.376 34V22.48H46.688V34H45.376ZM53.088 34V22.48H54.4V34H53.088ZM46.048 27.424H53.664V28.576H46.048V27.424ZM62.0693 34C62.0266 33.8187 61.9946 33.6107 61.9733 33.376C61.9626 33.1413 61.9573 32.8427 61.9573 32.48H61.8773V28.576C61.8773 27.9573 61.7333 27.504 61.4453 27.216C61.1679 26.9173 60.7146 26.768 60.0853 26.768C59.4666 26.768 58.9706 26.896 58.5973 27.152C58.2346 27.3973 58.0319 27.7493 57.9893 28.208H56.7573C56.8106 27.4187 57.1413 26.8 57.7493 26.352C58.3573 25.904 59.1519 25.68 60.1333 25.68C61.1466 25.68 61.8986 25.92 62.3893 26.4C62.8799 26.88 63.1253 27.6 63.1253 28.56V32.48C63.1253 32.7147 63.1413 32.96 63.1733 33.216C63.2053 33.4613 63.2479 33.7227 63.3013 34H62.0693ZM59.2693 34.16C58.4266 34.16 57.7546 33.9573 57.2533 33.552C56.7626 33.136 56.5173 32.5707 56.5173 31.856C56.5173 31.1413 56.7626 30.5867 57.2533 30.192C57.7439 29.7973 58.4586 29.52 59.3973 29.36L62.2453 28.88V29.936L59.5893 30.352C58.9919 30.448 58.5386 30.608 58.2293 30.832C57.9199 31.056 57.7653 31.3813 57.7653 31.808C57.7653 32.224 57.9039 32.5387 58.1813 32.752C58.4693 32.9653 58.8906 33.072 59.4453 33.072C60.1599 33.072 60.7413 32.912 61.1893 32.592C61.6479 32.2613 61.8773 31.8347 61.8773 31.312L62.0853 32.448C61.9146 32.992 61.5786 33.4133 61.0773 33.712C60.5866 34.0107 59.9839 34.16 59.2693 34.16ZM68.3293 34.16C67.3266 34.16 66.5266 33.9307 65.9293 33.472C65.3319 33.0027 64.9906 32.3413 64.9053 31.488H66.1373C66.2119 32.0107 66.4413 32.4107 66.8253 32.688C67.2093 32.9653 67.7213 33.104 68.3613 33.104C68.9266 33.104 69.3693 32.9973 69.6893 32.784C70.0093 32.5707 70.1693 32.2667 70.1693 31.872C70.1693 31.5947 70.0786 31.3547 69.8973 31.152C69.7159 30.9387 69.3533 30.7627 68.8093 30.624L67.4973 30.288C66.7506 30.096 66.1906 29.8027 65.8173 29.408C65.4439 29.0027 65.2573 28.5227 65.2573 27.968C65.2573 27.264 65.5186 26.7093 66.0413 26.304C66.5639 25.888 67.2733 25.68 68.1693 25.68C69.0546 25.68 69.7746 25.8933 70.3293 26.32C70.8839 26.7467 71.1986 27.3387 71.2733 28.096H70.0413C69.9666 27.6587 69.7639 27.3227 69.4333 27.088C69.1026 26.8533 68.6653 26.736 68.1213 26.736C67.5986 26.736 67.1933 26.8373 66.9053 27.04C66.6173 27.232 66.4733 27.5093 66.4733 27.872C66.4733 28.1493 66.5746 28.3893 66.7773 28.592C66.9906 28.7947 67.3426 28.9653 67.8333 29.104L69.1133 29.456C69.8706 29.6587 70.4413 29.968 70.8253 30.384C71.2093 30.8 71.4013 31.3013 71.4013 31.888C71.4013 32.6027 71.1293 33.1627 70.5853 33.568C70.0413 33.9627 69.2893 34.16 68.3293 34.16ZM73.1238 34V22.48H74.4038V34H73.1238ZM78.9638 34V28.656C78.9638 28.0373 78.8091 27.5733 78.4998 27.264C78.1904 26.9547 77.7318 26.8 77.1238 26.8C76.5904 26.8 76.1158 26.9173 75.6998 27.152C75.2944 27.3867 74.9744 27.712 74.7398 28.128C74.5158 28.544 74.4038 29.0293 74.4038 29.584L74.1957 27.648C74.4731 27.04 74.8944 26.56 75.4598 26.208C76.0358 25.856 76.6864 25.68 77.4118 25.68C78.2651 25.68 78.9478 25.9253 79.4598 26.416C79.9824 26.896 80.2438 27.5307 80.2438 28.32V34H78.9638ZM82.7019 34V25.84H83.9019V27.76H83.9819V34H82.7019ZM88.5419 34V28.656C88.5419 28.0373 88.3872 27.5733 88.0779 27.264C87.7685 26.9547 87.3099 26.8 86.7019 26.8C86.1685 26.8 85.6939 26.9173 85.2779 27.152C84.8725 27.3867 84.5525 27.712 84.3179 28.128C84.0939 28.544 83.9819 29.0293 83.9819 29.584L83.7739 27.648C84.0512 27.04 84.4725 26.56 85.0379 26.208C85.6139 25.856 86.2645 25.68 86.9899 25.68C87.8432 25.68 88.5259 25.9253 89.0379 26.416C89.5605 26.896 89.8219 27.5307 89.8219 28.32V34H88.5419ZM95.672 34.16C94.872 34.16 94.168 33.9733 93.56 33.6C92.952 33.2267 92.4773 32.72 92.136 32.08C91.8053 31.4293 91.64 30.6987 91.64 29.888C91.64 29.0667 91.8107 28.3413 92.152 27.712C92.4933 27.0827 92.9627 26.5867 93.56 26.224C94.168 25.8613 94.872 25.68 95.672 25.68C96.4827 25.68 97.1867 25.8613 97.784 26.224C98.392 26.5867 98.8613 27.0827 99.192 27.712C99.5333 28.3413 99.704 29.0667 99.704 29.888C99.704 30.6987 99.5333 31.4293 99.192 32.08C98.8613 32.72 98.392 33.2267 97.784 33.6C97.1867 33.9733 96.4827 34.16 95.672 34.16ZM95.672 33.072C96.2267 33.072 96.7067 32.9387 97.112 32.672C97.5173 32.3947 97.832 32.016 98.056 31.536C98.28 31.056 98.392 30.5013 98.392 29.872C98.392 28.9333 98.1413 28.1813 97.64 27.616C97.1493 27.0507 96.4933 26.768 95.672 26.768C94.8613 26.768 94.2053 27.0507 93.704 27.616C93.2027 28.1813 92.952 28.9333 92.952 29.872C92.952 30.5013 93.064 31.056 93.288 31.536C93.512 32.016 93.8267 32.3947 94.232 32.672C94.648 32.9387 95.128 33.072 95.672 33.072ZM107.56 34V32.096L107.72 32.144C107.517 32.7627 107.144 33.2533 106.6 33.616C106.066 33.9787 105.426 34.16 104.68 34.16C103.944 34.16 103.298 33.984 102.744 33.632C102.2 33.28 101.773 32.7893 101.464 32.16C101.165 31.5307 101.016 30.7947 101.016 29.952C101.016 29.0987 101.17 28.352 101.48 27.712C101.789 27.072 102.221 26.576 102.776 26.224C103.33 25.872 103.981 25.696 104.728 25.696C105.496 25.696 106.141 25.8827 106.664 26.256C107.186 26.6293 107.544 27.1573 107.736 27.84L107.48 27.872V22.48H108.76V34H107.56ZM104.92 33.04C105.741 33.04 106.381 32.7627 106.84 32.208C107.309 31.6427 107.544 30.8747 107.544 29.904C107.544 28.9547 107.309 28.2027 106.84 27.648C106.37 27.0933 105.73 26.816 104.92 26.816C104.109 26.816 103.474 27.0933 103.016 27.648C102.557 28.2027 102.328 28.9707 102.328 29.952C102.328 30.912 102.557 31.6693 103.016 32.224C103.474 32.768 104.109 33.04 104.92 33.04ZM114.671 34.16C113.892 34.16 113.204 33.9787 112.607 33.616C112.01 33.2427 111.54 32.736 111.199 32.096C110.858 31.456 110.687 30.72 110.687 29.888C110.687 29.056 110.852 28.3253 111.183 27.696C111.524 27.056 111.999 26.56 112.607 26.208C113.215 25.856 113.914 25.68 114.703 25.68C115.46 25.68 116.116 25.8453 116.671 26.176C117.236 26.5067 117.668 26.9707 117.967 27.568C118.276 28.1653 118.431 28.8693 118.431 29.68C118.431 29.7867 118.426 29.888 118.415 29.984C118.415 30.08 118.404 30.1867 118.383 30.304H111.647V29.232H117.599L117.183 29.824C117.183 28.8427 116.964 28.0907 116.527 27.568C116.1 27.0347 115.492 26.768 114.703 26.768C113.892 26.768 113.236 27.0507 112.735 27.616C112.244 28.1707 111.999 28.9227 111.999 29.872C111.999 30.8427 112.244 31.6213 112.735 32.208C113.236 32.784 113.903 33.072 114.735 33.072C115.258 33.072 115.716 32.96 116.111 32.736C116.506 32.5013 116.794 32.1707 116.975 31.744H118.191C117.924 32.4907 117.476 33.0827 116.847 33.52C116.228 33.9467 115.503 34.16 114.671 34.16Z" fill="white"/>
<path d="M207.667 27.3335V28.6669H215.667L212 32.3335L212.947 33.2802L218.227 28.0002L212.947 22.7202L212 23.6669L215.667 27.3335H207.667Z" fill="white"/>
<defs>
<clipPath id="clip0_86_26596">
<rect width="20" height="20" fill="white" transform="translate(16 18)"/>
</clipPath>
</defs>
</svg>
