<svg width="237" height="56" viewBox="0 0 237 56" fill="none" xmlns="http://www.w3.org/2000/svg">
<rect width="237" height="56" rx="8" fill="#2D68FF"/>
<path d="M31.8333 20.5C32.2754 20.5 32.6993 20.6756 33.0118 20.9882C33.3244 21.3007 33.5 21.7246 33.5 22.1667V33.8333C33.5 34.2754 33.3244 34.6993 33.0118 35.0118C32.6993 35.3244 32.2754 35.5 31.8333 35.5H20.1667C19.7246 35.5 19.3007 35.3244 18.9882 35.0118C18.6756 34.6993 18.5 34.2754 18.5 33.8333V22.1667C18.5 21.7246 18.6756 21.3007 18.9882 20.9882C19.3007 20.6756 19.7246 20.5 20.1667 20.5H31.8333ZM31.4167 33.4167V29C31.4167 28.2795 31.1304 27.5885 30.621 27.079C30.1115 26.5696 29.4205 26.2833 28.7 26.2833C27.9917 26.2833 27.1667 26.7167 26.7667 27.3667V26.4417H24.4417V33.4167H26.7667V29.3083C26.7667 28.6667 27.2833 28.1417 27.925 28.1417C28.2344 28.1417 28.5312 28.2646 28.75 28.4834C28.9688 28.7022 29.0917 28.9989 29.0917 29.3083V33.4167H31.4167ZM21.7333 25.1333C22.1046 25.1333 22.4607 24.9858 22.7233 24.7233C22.9858 24.4607 23.1333 24.1046 23.1333 23.7333C23.1333 22.9583 22.5083 22.325 21.7333 22.325C21.3598 22.325 21.0016 22.4734 20.7375 22.7375C20.4734 23.0016 20.325 23.3598 20.325 23.7333C20.325 24.5083 20.9583 25.1333 21.7333 25.1333ZM22.8917 33.4167V26.4417H20.5833V33.4167H22.8917Z" fill="white"/>
<path d="M45.376 34V22.48H46.688V34H45.376ZM46.048 34V32.848H52.608V34H46.048ZM54.2488 34V25.84H55.5288V34H54.2488ZM54.1528 23.984V22.48H55.6248V23.984H54.1528ZM58.0925 34V25.84H59.2925V27.76H59.3725V34H58.0925ZM63.9325 34V28.656C63.9325 28.0373 63.7778 27.5733 63.4685 27.264C63.1592 26.9547 62.7005 26.8 62.0925 26.8C61.5592 26.8 61.0845 26.9173 60.6685 27.152C60.2632 27.3867 59.9432 27.712 59.7085 28.128C59.4845 28.544 59.3725 29.0293 59.3725 29.584L59.1645 27.648C59.4418 27.04 59.8632 26.56 60.4285 26.208C61.0045 25.856 61.6552 25.68 62.3805 25.68C63.2338 25.68 63.9165 25.9253 64.4285 26.416C64.9512 26.896 65.2125 27.5307 65.2125 28.32V34H63.9325ZM67.6706 34V22.16H68.9506V34H67.6706ZM72.9986 34L68.6626 29.76L72.8386 25.84H74.5986L69.9106 30.128L69.9906 29.376L74.7586 34H72.9986ZM79.0928 34.16C78.3141 34.16 77.6261 33.9787 77.0288 33.616C76.4314 33.2427 75.9621 32.736 75.6208 32.096C75.2794 31.456 75.1088 30.72 75.1088 29.888C75.1088 29.056 75.2741 28.3253 75.6048 27.696C75.9461 27.056 76.4208 26.56 77.0288 26.208C77.6368 25.856 78.3354 25.68 79.1248 25.68C79.8821 25.68 80.5381 25.8453 81.0928 26.176C81.6581 26.5067 82.0901 26.9707 82.3888 27.568C82.6981 28.1653 82.8528 28.8693 82.8528 29.68C82.8528 29.7867 82.8474 29.888 82.8368 29.984C82.8368 30.08 82.8261 30.1867 82.8048 30.304H76.0688V29.232H82.0208L81.6048 29.824C81.6048 28.8427 81.3861 28.0907 80.9488 27.568C80.5221 27.0347 79.9141 26.768 79.1248 26.768C78.3141 26.768 77.6581 27.0507 77.1568 27.616C76.6661 28.1707 76.4208 28.9227 76.4208 29.872C76.4208 30.8427 76.6661 31.6213 77.1568 32.208C77.6581 32.784 78.3248 33.072 79.1568 33.072C79.6794 33.072 80.1381 32.96 80.5328 32.736C80.9274 32.5013 81.2154 32.1707 81.3968 31.744H82.6128C82.3461 32.4907 81.8981 33.0827 81.2688 33.52C80.6501 33.9467 79.9248 34.16 79.0928 34.16ZM90.716 34V32.096L90.876 32.144C90.6733 32.7627 90.3 33.2533 89.756 33.616C89.2227 33.9787 88.5827 34.16 87.836 34.16C87.1 34.16 86.4547 33.984 85.9 33.632C85.356 33.28 84.9293 32.7893 84.62 32.16C84.3213 31.5307 84.172 30.7947 84.172 29.952C84.172 29.0987 84.3267 28.352 84.636 27.712C84.9453 27.072 85.3773 26.576 85.932 26.224C86.4867 25.872 87.1373 25.696 87.884 25.696C88.652 25.696 89.2973 25.8827 89.82 26.256C90.3427 26.6293 90.7 27.1573 90.892 27.84L90.636 27.872V22.48H91.916V34H90.716ZM88.076 33.04C88.8973 33.04 89.5373 32.7627 89.996 32.208C90.4653 31.6427 90.7 30.8747 90.7 29.904C90.7 28.9547 90.4653 28.2027 89.996 27.648C89.5267 27.0933 88.8867 26.816 88.076 26.816C87.2653 26.816 86.6307 27.0933 86.172 27.648C85.7133 28.2027 85.484 28.9707 85.484 29.952C85.484 30.912 85.7133 31.6693 86.172 32.224C86.6307 32.768 87.2653 33.04 88.076 33.04ZM94.5791 34V22.48H95.8911V34H94.5791ZM98.5456 34V25.84H99.7456V27.76H99.8256V34H98.5456ZM104.386 34V28.656C104.386 28.0373 104.231 27.5733 103.922 27.264C103.612 26.9547 103.154 26.8 102.546 26.8C102.012 26.8 101.538 26.9173 101.122 27.152C100.716 27.3867 100.396 27.712 100.162 28.128C99.9376 28.544 99.8256 29.0293 99.8256 29.584L99.6176 27.648C99.895 27.04 100.316 26.56 100.882 26.208C101.458 25.856 102.108 25.68 102.834 25.68C103.687 25.68 104.37 25.9253 104.882 26.416C105.404 26.896 105.666 27.5307 105.666 28.32V34H104.386Z" fill="white"/>
<path d="M207.667 27.3335V28.6669H215.667L212 32.3335L212.947 33.2802L218.227 28.0002L212.947 22.7202L212 23.6669L215.667 27.3335H207.667Z" fill="white"/>
</svg>
