<svg width="237" height="56" viewBox="0 0 237 56" fill="none" xmlns="http://www.w3.org/2000/svg">
<rect width="237" height="56" rx="8" fill="#EC7100"/>
<path d="M31.8199 36.2194V30.8844H33.6005V38H17.5361V30.8844H19.3105V36.2194H31.8199ZM21.0905 34.4419H30.043V32.6619H21.0905V34.4419ZM21.3093 30.3994L30.0436 32.2219L30.418 30.4969L21.6874 28.6769L21.3093 30.3994ZM22.4418 26.1869L30.5286 29.96L31.2805 28.335L23.1949 24.5594L22.4424 26.1744L22.4418 26.1869ZM24.7043 22.1994L31.5499 27.9125L32.683 26.5606L25.8374 20.8512L24.7105 22.1956L24.7043 22.1994ZM29.1249 18L27.6699 19.0775L33.008 26.2481L34.463 25.1706L29.1249 18Z" fill="white"/>
<path d="M49.28 34.144C47.936 34.144 46.864 33.8133 46.064 33.152C45.2747 32.4907 44.8107 31.5467 44.672 30.32H45.952C46.0693 31.2053 46.4053 31.872 46.96 32.32C47.5147 32.768 48.2827 32.992 49.264 32.992C50.096 32.992 50.72 32.8373 51.136 32.528C51.5627 32.208 51.776 31.744 51.776 31.136C51.776 30.6133 51.632 30.1973 51.344 29.888C51.056 29.5787 50.608 29.3227 50 29.12L48.064 28.448C47.0827 28.1067 46.3573 27.696 45.888 27.216C45.4187 26.7253 45.184 26.1067 45.184 25.36C45.184 24.7413 45.3387 24.208 45.648 23.76C45.9573 23.3013 46.3947 22.944 46.96 22.688C47.5253 22.432 48.1813 22.304 48.928 22.304C50.08 22.304 51.0027 22.608 51.696 23.216C52.3893 23.8133 52.7893 24.6667 52.896 25.776H51.616C51.4773 24.976 51.1893 24.3893 50.752 24.016C50.3253 23.6427 49.7067 23.456 48.896 23.456C48.128 23.456 47.5307 23.6107 47.104 23.92C46.6773 24.2293 46.464 24.6667 46.464 25.232C46.464 25.712 46.6133 26.096 46.912 26.384C47.2107 26.672 47.6747 26.9227 48.304 27.136L50.368 27.856C51.264 28.1653 51.936 28.5867 52.384 29.12C52.832 29.6427 53.056 30.3093 53.056 31.12C53.056 32.08 52.7253 32.8267 52.064 33.36C51.4133 33.8827 50.4853 34.144 49.28 34.144ZM58.2784 34.144C57.3717 34.144 56.7104 33.9413 56.2944 33.536C55.889 33.12 55.6864 32.5227 55.6864 31.744V23.936L56.9664 23.456V31.728C56.9664 32.1867 57.0837 32.5227 57.3184 32.736C57.553 32.9493 57.937 33.056 58.4704 33.056C58.6837 33.056 58.865 33.0453 59.0144 33.024C59.1744 32.992 59.3024 32.9547 59.3984 32.912V34C59.2917 34.0427 59.137 34.0747 58.9344 34.096C58.7424 34.128 58.5237 34.144 58.2784 34.144ZM54.0064 26.928V25.84H59.3984V26.928H54.0064ZM66.0536 34C66.011 33.8187 65.979 33.6107 65.9576 33.376C65.947 33.1413 65.9416 32.8427 65.9416 32.48H65.8616V28.576C65.8616 27.9573 65.7176 27.504 65.4296 27.216C65.1523 26.9173 64.699 26.768 64.0696 26.768C63.451 26.768 62.955 26.896 62.5816 27.152C62.219 27.3973 62.0163 27.7493 61.9736 28.208H60.7416C60.795 27.4187 61.1256 26.8 61.7336 26.352C62.3416 25.904 63.1363 25.68 64.1176 25.68C65.131 25.68 65.883 25.92 66.3736 26.4C66.8643 26.88 67.1096 27.6 67.1096 28.56V32.48C67.1096 32.7147 67.1256 32.96 67.1576 33.216C67.1896 33.4613 67.2323 33.7227 67.2856 34H66.0536ZM63.2536 34.16C62.411 34.16 61.739 33.9573 61.2376 33.552C60.747 33.136 60.5016 32.5707 60.5016 31.856C60.5016 31.1413 60.747 30.5867 61.2376 30.192C61.7283 29.7973 62.443 29.52 63.3816 29.36L66.2296 28.88V29.936L63.5736 30.352C62.9763 30.448 62.523 30.608 62.2136 30.832C61.9043 31.056 61.7496 31.3813 61.7496 31.808C61.7496 32.224 61.8883 32.5387 62.1656 32.752C62.4536 32.9653 62.875 33.072 63.4296 33.072C64.1443 33.072 64.7256 32.912 65.1736 32.592C65.6323 32.2613 65.8616 31.8347 65.8616 31.312L66.0696 32.448C65.899 32.992 65.563 33.4133 65.0616 33.712C64.571 34.0107 63.9683 34.16 63.2536 34.16ZM72.8089 34.16C72.0622 34.16 71.3955 33.9787 70.8089 33.616C70.2329 33.2427 69.7742 32.736 69.4329 32.096C69.1022 31.4453 68.9369 30.7093 68.9369 29.888C68.9369 29.0667 69.1022 28.3413 69.4329 27.712C69.7742 27.0827 70.2329 26.5867 70.8089 26.224C71.3955 25.8613 72.0569 25.68 72.7929 25.68C73.4009 25.68 73.9449 25.7973 74.4249 26.032C74.9155 26.2667 75.3155 26.6027 75.6249 27.04C75.9449 27.4667 76.1475 27.968 76.2329 28.544H75.0489C74.9422 28.0213 74.6969 27.5947 74.3129 27.264C73.9289 26.9333 73.4329 26.768 72.8249 26.768C72.3022 26.768 71.8489 26.896 71.4649 27.152C71.0809 27.408 70.7822 27.7707 70.5689 28.24C70.3555 28.7093 70.2489 29.2587 70.2489 29.888C70.2489 30.5173 70.3555 31.072 70.5689 31.552C70.7822 32.032 71.0809 32.4053 71.4649 32.672C71.8595 32.9387 72.3182 33.072 72.8409 33.072C73.4275 33.072 73.9182 32.912 74.3129 32.592C74.7075 32.2613 74.9582 31.8347 75.0649 31.312H76.2489C76.1529 31.8773 75.9395 32.3787 75.6089 32.816C75.2889 33.2427 74.8889 33.5733 74.4089 33.808C73.9289 34.0427 73.3955 34.16 72.8089 34.16ZM78.1081 34V22.16H79.3881V34H78.1081ZM83.4361 34L79.1001 29.76L83.2761 25.84H85.0361L80.3481 30.128L80.4281 29.376L85.1961 34H83.4361ZM94.8818 34.16C94.0818 34.16 93.3458 34.016 92.6738 33.728C92.0124 33.4293 91.4364 33.0133 90.9457 32.48C90.4551 31.936 90.0711 31.3013 89.7938 30.576C89.5271 29.8507 89.3938 29.056 89.3938 28.192C89.3938 27.0507 89.6284 26.0373 90.0978 25.152C90.5671 24.2667 91.2124 23.5733 92.0338 23.072C92.8658 22.5707 93.8098 22.32 94.8658 22.32C95.9431 22.32 96.8924 22.5707 97.7138 23.072C98.5458 23.5733 99.1964 24.2667 99.6658 25.152C100.135 26.0373 100.37 27.056 100.37 28.208C100.37 29.072 100.231 29.8667 99.9538 30.592C99.6871 31.3173 99.3084 31.9467 98.8178 32.48C98.3271 33.0133 97.7458 33.4293 97.0738 33.728C96.4018 34.016 95.6711 34.16 94.8818 34.16ZM94.8658 32.976C95.6871 32.976 96.4071 32.7733 97.0258 32.368C97.6551 31.952 98.1458 31.3813 98.4978 30.656C98.8498 29.9307 99.0258 29.104 99.0258 28.176C99.0258 27.2587 98.8498 26.448 98.4978 25.744C98.1564 25.04 97.6711 24.4907 97.0417 24.096C96.4231 23.7013 95.6978 23.504 94.8658 23.504C94.0338 23.504 93.3084 23.7013 92.6898 24.096C92.0711 24.4907 91.5911 25.04 91.2498 25.744C90.9084 26.4373 90.7378 27.248 90.7378 28.176C90.7378 29.1147 90.9084 29.9467 91.2498 30.672C91.6018 31.3867 92.0871 31.952 92.7057 32.368C93.3244 32.7733 94.0444 32.976 94.8658 32.976ZM104.789 34L101.413 25.84H102.789L105.605 33.136H105.093L107.893 25.84H109.205L105.829 34H104.789ZM113.921 34.16C113.142 34.16 112.454 33.9787 111.857 33.616C111.26 33.2427 110.79 32.736 110.449 32.096C110.108 31.456 109.937 30.72 109.937 29.888C109.937 29.056 110.102 28.3253 110.433 27.696C110.774 27.056 111.249 26.56 111.857 26.208C112.465 25.856 113.164 25.68 113.953 25.68C114.71 25.68 115.366 25.8453 115.921 26.176C116.486 26.5067 116.918 26.9707 117.217 27.568C117.526 28.1653 117.681 28.8693 117.681 29.68C117.681 29.7867 117.676 29.888 117.665 29.984C117.665 30.08 117.654 30.1867 117.633 30.304H110.897V29.232H116.849L116.433 29.824C116.433 28.8427 116.214 28.0907 115.777 27.568C115.35 27.0347 114.742 26.768 113.953 26.768C113.142 26.768 112.486 27.0507 111.985 27.616C111.494 28.1707 111.249 28.9227 111.249 29.872C111.249 30.8427 111.494 31.6213 111.985 32.208C112.486 32.784 113.153 33.072 113.985 33.072C114.508 33.072 114.966 32.96 115.361 32.736C115.756 32.5013 116.044 32.1707 116.225 31.744H117.441C117.174 32.4907 116.726 33.0827 116.097 33.52C115.478 33.9467 114.753 34.16 113.921 34.16ZM119.608 34V25.84H120.808V27.92H120.888V34H119.608ZM120.888 29.744L120.68 27.808C120.872 27.1147 121.213 26.5867 121.704 26.224C122.195 25.8613 122.76 25.68 123.4 25.68C123.667 25.68 123.848 25.7013 123.944 25.744V26.976C123.891 26.9547 123.816 26.944 123.72 26.944C123.624 26.9333 123.507 26.928 123.368 26.928C122.557 26.928 121.939 27.1733 121.512 27.664C121.096 28.144 120.888 28.8373 120.888 29.744ZM126.468 34V24.848C126.468 24.1013 126.686 23.52 127.124 23.104C127.561 22.688 128.244 22.48 129.172 22.48H132.132V23.504H129.172C128.681 23.504 128.318 23.6267 128.084 23.872C127.86 24.1173 127.748 24.464 127.748 24.912V34H126.468ZM124.788 26.928V25.84H129.604V26.928H124.788ZM131.62 34V22.48H132.9V34H131.62ZM138.813 34.16C138.013 34.16 137.309 33.9733 136.701 33.6C136.093 33.2267 135.618 32.72 135.277 32.08C134.946 31.4293 134.781 30.6987 134.781 29.888C134.781 29.0667 134.951 28.3413 135.293 27.712C135.634 27.0827 136.103 26.5867 136.701 26.224C137.309 25.8613 138.013 25.68 138.813 25.68C139.623 25.68 140.327 25.8613 140.925 26.224C141.533 26.5867 142.002 27.0827 142.333 27.712C142.674 28.3413 142.845 29.0667 142.845 29.888C142.845 30.6987 142.674 31.4293 142.333 32.08C142.002 32.72 141.533 33.2267 140.925 33.6C140.327 33.9733 139.623 34.16 138.813 34.16ZM138.813 33.072C139.367 33.072 139.847 32.9387 140.253 32.672C140.658 32.3947 140.973 32.016 141.197 31.536C141.421 31.056 141.533 30.5013 141.533 29.872C141.533 28.9333 141.282 28.1813 140.781 27.616C140.29 27.0507 139.634 26.768 138.813 26.768C138.002 26.768 137.346 27.0507 136.845 27.616C136.343 28.1813 136.093 28.9333 136.093 29.872C136.093 30.5013 136.205 31.056 136.429 31.536C136.653 32.016 136.967 32.3947 137.373 32.672C137.789 32.9387 138.269 33.072 138.813 33.072ZM146.272 34L143.776 25.84H145.072L146.992 32.832H146.672L148.976 25.84H150.016L152.336 32.832H152.016L153.92 25.84H155.152L152.656 34H151.616L149.312 27.168H149.648L147.312 34H146.272Z" fill="white"/>
<path d="M207.667 27.3335V28.6669H215.667L212 32.3335L212.947 33.2802L218.227 28.0002L212.947 22.7202L212 23.6669L215.667 27.3335H207.667Z" fill="white"/>
</svg>
