<svg width="237" height="56" viewBox="0 0 237 56" fill="none" xmlns="http://www.w3.org/2000/svg">
<rect width="237" height="56" rx="8" fill="#EE3FC8"/>
<path d="M25.7001 22.9415H26.8917V26.5082H25.7001M28.9751 22.9415H30.1667V26.5082H28.9751M21.8334 19.6665L18.8584 22.6415V33.3582H22.4251V36.3332L25.4084 33.3582H27.7834L33.1417 27.9998V19.6665M31.9501 27.4082L29.5751 29.7832H27.1917L25.1084 31.8665V29.7832H22.4251V20.8582H31.9501V27.4082Z" fill="white"/>
<path d="M48.528 34V23.632H44.576V22.48H53.792V23.632H49.84V34H48.528ZM55.819 34L53.323 25.84H54.619L56.539 32.832H56.219L58.523 25.84H59.563L61.883 32.832H61.563L63.467 25.84H64.699L62.203 34H61.163L58.859 27.168H59.195L56.859 34H55.819ZM66.3894 34V25.84H67.6694V34H66.3894ZM66.2934 23.984V22.48H67.7654V23.984H66.2934ZM73.4659 34.144C72.5592 34.144 71.8979 33.9413 71.4819 33.536C71.0765 33.12 70.8739 32.5227 70.8739 31.744V23.936L72.1539 23.456V31.728C72.1539 32.1867 72.2712 32.5227 72.5059 32.736C72.7405 32.9493 73.1245 33.056 73.6579 33.056C73.8712 33.056 74.0525 33.0453 74.2019 33.024C74.3619 32.992 74.4899 32.9547 74.5859 32.912V34C74.4792 34.0427 74.3245 34.0747 74.1219 34.096C73.9299 34.128 73.7112 34.144 73.4659 34.144ZM69.1939 26.928V25.84H74.5859V26.928H69.1939ZM79.2933 34.16C78.5466 34.16 77.8799 33.9787 77.2933 33.616C76.7173 33.2427 76.2586 32.736 75.9173 32.096C75.5866 31.4453 75.4213 30.7093 75.4213 29.888C75.4213 29.0667 75.5866 28.3413 75.9173 27.712C76.2586 27.0827 76.7173 26.5867 77.2933 26.224C77.8799 25.8613 78.5413 25.68 79.2773 25.68C79.8853 25.68 80.4293 25.7973 80.9093 26.032C81.3999 26.2667 81.7999 26.6027 82.1093 27.04C82.4293 27.4667 82.6319 27.968 82.7173 28.544H81.5333C81.4266 28.0213 81.1813 27.5947 80.7973 27.264C80.4133 26.9333 79.9173 26.768 79.3093 26.768C78.7866 26.768 78.3333 26.896 77.9493 27.152C77.5653 27.408 77.2666 27.7707 77.0533 28.24C76.8399 28.7093 76.7333 29.2587 76.7333 29.888C76.7333 30.5173 76.8399 31.072 77.0533 31.552C77.2666 32.032 77.5653 32.4053 77.9493 32.672C78.3439 32.9387 78.8026 33.072 79.3253 33.072C79.9119 33.072 80.4026 32.912 80.7973 32.592C81.1919 32.2613 81.4426 31.8347 81.5493 31.312H82.7333C82.6373 31.8773 82.4239 32.3787 82.0933 32.816C81.7733 33.2427 81.3733 33.5733 80.8933 33.808C80.4133 34.0427 79.8799 34.16 79.2933 34.16ZM84.5925 34V22.48H85.8725V34H84.5925ZM90.4325 34V28.656C90.4325 28.0373 90.2778 27.5733 89.9685 27.264C89.6592 26.9547 89.2005 26.8 88.5925 26.8C88.0592 26.8 87.5845 26.9173 87.1685 27.152C86.7632 27.3867 86.4432 27.712 86.2085 28.128C85.9845 28.544 85.8725 29.0293 85.8725 29.584L85.6645 27.648C85.9418 27.04 86.3632 26.56 86.9285 26.208C87.5045 25.856 88.1552 25.68 88.8805 25.68C89.7338 25.68 90.4165 25.9253 90.9285 26.416C91.4512 26.896 91.7125 27.5307 91.7125 28.32V34H90.4325Z" fill="white"/>
<path d="M207.667 27.3335V28.6669H215.667L212 32.3335L212.947 33.2802L218.227 28.0002L212.947 22.7202L212 23.6669L215.667 27.3335H207.667Z" fill="white"/>
</svg>
