<svg width="237" height="56" viewBox="0 0 237 56" fill="none" xmlns="http://www.w3.org/2000/svg">
<rect width="237" height="56" rx="8" fill="#43B7E9"/>
<path d="M34.7165 23.0002C34.0749 23.2918 33.3832 23.4835 32.6665 23.5752C33.3999 23.1335 33.9665 22.4335 34.2332 21.5918C33.5415 22.0085 32.7749 22.3002 31.9665 22.4668C31.3082 21.7502 30.3832 21.3335 29.3332 21.3335C27.3749 21.3335 25.7749 22.9335 25.7749 24.9085C25.7749 25.1918 25.8082 25.4668 25.8665 25.7252C22.8999 25.5752 20.2582 24.1502 18.4999 21.9918C18.1915 22.5168 18.0165 23.1335 18.0165 23.7835C18.0165 25.0252 18.6415 26.1252 19.6082 26.7502C19.0165 26.7502 18.4665 26.5835 17.9832 26.3335V26.3585C17.9832 28.0918 19.2165 29.5418 20.8499 29.8668C20.3255 30.0103 19.7749 30.0303 19.2415 29.9252C19.4679 30.6356 19.9112 31.2572 20.5091 31.7026C21.107 32.148 21.8294 32.3949 22.5749 32.4085C21.3112 33.4089 19.7449 33.9496 18.1332 33.9418C17.8499 33.9418 17.5665 33.9252 17.2832 33.8918C18.8665 34.9085 20.7499 35.5002 22.7665 35.5002C29.3332 35.5002 32.9415 30.0502 32.9415 25.3252C32.9415 25.1668 32.9415 25.0168 32.9332 24.8585C33.6332 24.3585 34.2332 23.7252 34.7165 23.0002Z" fill="white"/>
<path d="M48.528 34V23.632H44.576V22.48H53.792V23.632H49.84V34H48.528ZM55.819 34L53.323 25.84H54.619L56.539 32.832H56.219L58.523 25.84H59.563L61.883 32.832H61.563L63.467 25.84H64.699L62.203 34H61.163L58.859 27.168H59.195L56.859 34H55.819ZM66.3894 34V25.84H67.6694V34H66.3894ZM66.2934 23.984V22.48H67.7654V23.984H66.2934ZM73.4659 34.144C72.5592 34.144 71.8979 33.9413 71.4819 33.536C71.0765 33.12 70.8739 32.5227 70.8739 31.744V23.936L72.1539 23.456V31.728C72.1539 32.1867 72.2712 32.5227 72.5059 32.736C72.7405 32.9493 73.1245 33.056 73.6579 33.056C73.8712 33.056 74.0525 33.0453 74.2019 33.024C74.3619 32.992 74.4899 32.9547 74.5859 32.912V34C74.4792 34.0427 74.3245 34.0747 74.1219 34.096C73.9299 34.128 73.7112 34.144 73.4659 34.144ZM69.1939 26.928V25.84H74.5859V26.928H69.1939ZM79.7784 34.144C78.8717 34.144 78.2104 33.9413 77.7944 33.536C77.389 33.12 77.1864 32.5227 77.1864 31.744V23.936L78.4664 23.456V31.728C78.4664 32.1867 78.5837 32.5227 78.8184 32.736C79.053 32.9493 79.437 33.056 79.9704 33.056C80.1837 33.056 80.365 33.0453 80.5144 33.024C80.6744 32.992 80.8024 32.9547 80.8984 32.912V34C80.7917 34.0427 80.637 34.0747 80.4344 34.096C80.2424 34.128 80.0237 34.144 79.7784 34.144ZM75.5064 26.928V25.84H80.8984V26.928H75.5064ZM85.7178 34.16C84.9391 34.16 84.2511 33.9787 83.6538 33.616C83.0564 33.2427 82.5871 32.736 82.2458 32.096C81.9044 31.456 81.7338 30.72 81.7338 29.888C81.7338 29.056 81.8991 28.3253 82.2298 27.696C82.5711 27.056 83.0458 26.56 83.6538 26.208C84.2618 25.856 84.9604 25.68 85.7498 25.68C86.5071 25.68 87.1631 25.8453 87.7178 26.176C88.2831 26.5067 88.7151 26.9707 89.0138 27.568C89.3231 28.1653 89.4778 28.8693 89.4778 29.68C89.4778 29.7867 89.4724 29.888 89.4618 29.984C89.4618 30.08 89.4511 30.1867 89.4298 30.304H82.6938V29.232H88.6458L88.2298 29.824C88.2298 28.8427 88.0111 28.0907 87.5738 27.568C87.1471 27.0347 86.5391 26.768 85.7498 26.768C84.9391 26.768 84.2831 27.0507 83.7818 27.616C83.2911 28.1707 83.0458 28.9227 83.0458 29.872C83.0458 30.8427 83.2911 31.6213 83.7818 32.208C84.2831 32.784 84.9498 33.072 85.7818 33.072C86.3044 33.072 86.7631 32.96 87.1578 32.736C87.5524 32.5013 87.8404 32.1707 88.0218 31.744H89.2378C88.9711 32.4907 88.5231 33.0827 87.8938 33.52C87.2751 33.9467 86.5498 34.16 85.7178 34.16ZM91.405 34V25.84H92.605V27.92H92.685V34H91.405ZM92.685 29.744L92.477 27.808C92.669 27.1147 93.0103 26.5867 93.501 26.224C93.9917 25.8613 94.557 25.68 95.197 25.68C95.4637 25.68 95.645 25.7013 95.741 25.744V26.976C95.6877 26.9547 95.613 26.944 95.517 26.944C95.421 26.9333 95.3037 26.928 95.165 26.928C94.3543 26.928 93.7357 27.1733 93.309 27.664C92.893 28.144 92.685 28.8373 92.685 29.744Z" fill="white"/>
<path d="M207.667 27.3335V28.6669H215.667L212 32.3335L212.947 33.2802L218.227 28.0002L212.947 22.7202L212 23.6669L215.667 27.3335H207.667Z" fill="white"/>
</svg>
