<svg width="237" height="56" viewBox="0 0 237 56" fill="none" xmlns="http://www.w3.org/2000/svg">
<rect width="237" height="56" rx="8" fill="#EE3939"/>
<path d="M26.2037 21.3335C26.6487 21.336 27.762 21.3468 28.9453 21.3943L29.3653 21.4127C30.5562 21.4685 31.7462 21.5652 32.337 21.7293C33.1245 21.951 33.7428 22.596 33.952 23.4143C34.2853 24.7143 34.327 27.2493 34.332 27.8635L34.3328 27.9902V28.1352C34.327 28.7493 34.2853 31.2852 33.952 32.5843C33.7403 33.4052 33.1212 34.051 32.337 34.2693C31.7462 34.4335 30.5562 34.5302 29.3653 34.586L28.9453 34.6052C27.762 34.6518 26.6487 34.6635 26.2037 34.6652L26.0078 34.666H25.7953C24.8537 34.6602 20.9153 34.6177 19.662 34.2693C18.8753 34.0477 18.2562 33.4027 18.047 32.5843C17.7137 31.2843 17.672 28.7493 17.667 28.1352V27.8635C17.672 27.2493 17.7137 24.7135 18.047 23.4143C18.2587 22.5935 18.8778 21.9477 19.6628 21.7302C20.9153 21.381 24.8545 21.3385 25.7962 21.3335H26.2037ZM24.3328 25.0835V30.9168L29.3328 28.0002L24.3328 25.0835Z" fill="white"/>
<path d="M48.752 34V28.784L44.384 22.48H45.984L49.776 28.016H49.168L52.96 22.48H54.432L50.064 28.784V34H48.752ZM57.9376 34.16C57.1376 34.16 56.4336 33.9733 55.8256 33.6C55.2176 33.2267 54.743 32.72 54.4016 32.08C54.071 31.4293 53.9056 30.6987 53.9056 29.888C53.9056 29.0667 54.0763 28.3413 54.4176 27.712C54.759 27.0827 55.2283 26.5867 55.8256 26.224C56.4336 25.8613 57.1376 25.68 57.9376 25.68C58.7483 25.68 59.4523 25.8613 60.0496 26.224C60.6576 26.5867 61.127 27.0827 61.4576 27.712C61.799 28.3413 61.9696 29.0667 61.9696 29.888C61.9696 30.6987 61.799 31.4293 61.4576 32.08C61.127 32.72 60.6576 33.2267 60.0496 33.6C59.4523 33.9733 58.7483 34.16 57.9376 34.16ZM57.9376 33.072C58.4923 33.072 58.9723 32.9387 59.3776 32.672C59.783 32.3947 60.0976 32.016 60.3216 31.536C60.5456 31.056 60.6576 30.5013 60.6576 29.872C60.6576 28.9333 60.407 28.1813 59.9056 27.616C59.415 27.0507 58.759 26.768 57.9376 26.768C57.127 26.768 56.471 27.0507 55.9696 27.616C55.4683 28.1813 55.2176 28.9333 55.2176 29.872C55.2176 30.5013 55.3296 31.056 55.5536 31.536C55.7776 32.016 56.0923 32.3947 56.4976 32.672C56.9136 32.9387 57.3936 33.072 57.9376 33.072ZM66.5454 34.16C66.012 34.16 65.5374 34.0533 65.1214 33.84C64.7054 33.616 64.38 33.3067 64.1454 32.912C63.9107 32.5067 63.7934 32.0427 63.7934 31.52V25.84H65.0734V31.184C65.0734 31.8027 65.2227 32.2667 65.5214 32.576C65.8307 32.8853 66.268 33.04 66.8334 33.04C67.3454 33.04 67.7987 32.9227 68.1934 32.688C68.588 32.4533 68.8974 32.128 69.1214 31.712C69.356 31.2853 69.4734 30.8 69.4734 30.256L69.6814 32.192C69.4147 32.8 68.9987 33.28 68.4334 33.632C67.868 33.984 67.2387 34.16 66.5454 34.16ZM69.5534 34V32.08H69.4734V25.84H70.7534V34H69.5534ZM75.0436 34V23.632H71.0916V22.48H80.3076V23.632H76.3556V34H75.0436ZM83.3266 34.16C82.7933 34.16 82.3186 34.0533 81.9026 33.84C81.4866 33.616 81.1613 33.3067 80.9266 32.912C80.692 32.5067 80.5746 32.0427 80.5746 31.52V25.84H81.8546V31.184C81.8546 31.8027 82.004 32.2667 82.3026 32.576C82.612 32.8853 83.0493 33.04 83.6146 33.04C84.1266 33.04 84.58 32.9227 84.9746 32.688C85.3693 32.4533 85.6786 32.128 85.9026 31.712C86.1373 31.2853 86.2546 30.8 86.2546 30.256L86.4626 32.192C86.196 32.8 85.78 33.28 85.2146 33.632C84.6493 33.984 84.02 34.16 83.3266 34.16ZM86.3346 34V32.08H86.2546V25.84H87.5346V34H86.3346ZM94.1245 34.144C93.3565 34.144 92.7112 33.9573 92.1885 33.584C91.6658 33.2107 91.3085 32.6827 91.1165 32L91.2925 31.968V34H90.0925V22.48H91.3725V27.744L91.1965 27.696C91.3992 27.0667 91.7672 26.576 92.3005 26.224C92.8445 25.8613 93.4898 25.68 94.2365 25.68C94.9618 25.68 95.5912 25.856 96.1245 26.208C96.6685 26.56 97.0898 27.0507 97.3885 27.68C97.6872 28.3093 97.8365 29.0453 97.8365 29.888C97.8365 30.7413 97.6818 31.488 97.3725 32.128C97.0632 32.768 96.6312 33.264 96.0765 33.616C95.5218 33.968 94.8712 34.144 94.1245 34.144ZM93.9325 33.024C94.7432 33.024 95.3778 32.7467 95.8365 32.192C96.2952 31.6267 96.5245 30.8587 96.5245 29.888C96.5245 28.928 96.2952 28.176 95.8365 27.632C95.3778 27.0773 94.7432 26.8 93.9325 26.8C93.1218 26.8 92.4818 27.0827 92.0125 27.648C91.5432 28.2027 91.3085 28.9653 91.3085 29.936C91.3085 30.8853 91.5432 31.6373 92.0125 32.192C92.4818 32.7467 93.1218 33.024 93.9325 33.024ZM103.14 34.16C102.361 34.16 101.673 33.9787 101.076 33.616C100.478 33.2427 100.009 32.736 99.6676 32.096C99.3263 31.456 99.1556 30.72 99.1556 29.888C99.1556 29.056 99.321 28.3253 99.6516 27.696C99.993 27.056 100.468 26.56 101.076 26.208C101.684 25.856 102.382 25.68 103.172 25.68C103.929 25.68 104.585 25.8453 105.14 26.176C105.705 26.5067 106.137 26.9707 106.436 27.568C106.745 28.1653 106.9 28.8693 106.9 29.68C106.9 29.7867 106.894 29.888 106.884 29.984C106.884 30.08 106.873 30.1867 106.852 30.304H100.116V29.232H106.068L105.652 29.824C105.652 28.8427 105.433 28.0907 104.996 27.568C104.569 27.0347 103.961 26.768 103.172 26.768C102.361 26.768 101.705 27.0507 101.204 27.616C100.713 28.1707 100.468 28.9227 100.468 29.872C100.468 30.8427 100.713 31.6213 101.204 32.208C101.705 32.784 102.372 33.072 103.204 33.072C103.726 33.072 104.185 32.96 104.58 32.736C104.974 32.5013 105.262 32.1707 105.444 31.744H106.66C106.393 32.4907 105.945 33.0827 105.316 33.52C104.697 33.9467 103.972 34.16 103.14 34.16Z" fill="white"/>
<path d="M207.667 27.3335V28.6669H215.667L212 32.3335L212.947 33.2802L218.227 28.0002L212.947 22.7202L212 23.6669L215.667 27.3335H207.667Z" fill="white"/>
</svg>
